%FSTAX23Y23*%
%MOIN*%
%SFA1B1*%

%IPPOS*%
%ADD39C,0.003937*%
%ADD40C,0.001969*%
%LNairdrums3-1*%
%LPD*%
G54D39*
X0364Y03265D02*
Y03304D01*
X0362Y03285D02*
X03659D01*
X03895Y03415D02*
Y03454D01*
X03875Y03435D02*
X03914D01*
X04555Y033D02*
X04594D01*
X04575Y0328D02*
Y03319D01*
X06365Y0343D02*
Y03469D01*
X06345Y0345D02*
X06384D01*
X05235Y03415D02*
X05274D01*
X05255Y03395D02*
Y03434D01*
X0389Y0315D02*
Y03189D01*
X0387Y0317D02*
X03909D01*
G54D40*
X03563Y03434D02*
X03716D01*
X03563Y03135D02*
X03716D01*
Y03434*
X03563Y03135D02*
Y03434D01*
X03824Y03474D02*
X03965D01*
X03824Y03395D02*
X03965D01*
X03824D02*
Y03474D01*
X03965Y03395D02*
Y03474D01*
X05116Y03109D02*
Y0349D01*
X04033Y03109D02*
Y0349D01*
X05116*
X04033Y03109D02*
X05116D01*
X06294Y03489D02*
X06435D01*
X06294Y0341D02*
X06435D01*
X06294D02*
Y03489D01*
X06435Y0341D02*
Y03489D01*
X05215Y03344D02*
Y03485D01*
X05294Y03344D02*
Y03485D01*
X05215Y03344D02*
X05294D01*
X05215Y03485D02*
X05294D01*
X03819Y03209D02*
X0396D01*
X03819Y0313D02*
X0396D01*
X03819D02*
Y03209D01*
X0396Y0313D02*
Y03209D01*
M02*