%FSTAX23Y23*%
%MOIN*%
%SFA1B1*%

%IPPOS*%
%ADD10R,0.133858X0.086614*%
%ADD11R,0.047992X0.035000*%
%ADD12R,0.255984X0.264999*%
%ADD13R,0.051181X0.059055*%
%ADD14R,0.059055X0.051181*%
%ADD15C,0.011811*%
%ADD16C,0.059055*%
%ADD17R,0.059055X0.059055*%
%ADD18R,0.059055X0.059055*%
%ADD19C,0.078740*%
%ADD20O,0.060000X0.127559*%
%ADD21C,0.062992*%
%LNairdrums3-1*%
%LPD*%
G54D10*
X0364Y03381D03*
Y03188D03*
G54D11*
X03455Y03369D03*
Y0319D03*
G54D12*
X03194Y0328D03*
G54D13*
X0386Y03435D03*
X03929D03*
X0633Y0345D03*
X06399D03*
X03855Y0317D03*
X03924D03*
G54D14*
X05255Y0338D03*
Y03449D03*
G54D15*
X03924Y03197D02*
X04385D01*
X03924D02*
Y0327D01*
X04925Y0315D02*
X04972Y03102D01*
X05642*
X05885Y03345*
X06515*
X03194Y0328D02*
X03538D01*
X0364Y03381*
X04725Y0345D02*
X04921Y03253D01*
X05753*
X0595Y0345*
X05187Y03302D02*
X05225D01*
X05255Y03332*
Y0338*
X021Y0322D02*
X02159Y0316D01*
X02912*
X03032Y0328*
X03194*
X04725Y0315D02*
X04797Y03077D01*
X06167*
X06384Y03295*
X06565*
X06615Y03345*
X05255Y03449D02*
X05298D01*
X05395Y03352*
X03401Y03369D02*
X03455D01*
X0334Y0343D02*
X03401Y03369D01*
X02835Y0343D02*
X0334D01*
X02735Y0333D02*
X02835Y0343D01*
X04525Y03337D02*
Y0345D01*
X04385Y03197D02*
X04525Y03337D01*
X03924Y0317D02*
Y03197D01*
X0408Y03105D02*
X04125Y0315D01*
X03874Y03105D02*
X0408D01*
X03855Y03125D02*
X03874Y03105D01*
X03855Y03125D02*
Y0317D01*
X0605Y0345D02*
X061Y034D01*
X06386*
X06399Y03412*
Y0345*
X06459Y03445D02*
X06515D01*
X06454Y0345D02*
X06459Y03445D01*
X06399Y0345D02*
X06454D01*
X04034D02*
X04125D01*
X04019Y03435D02*
X04034Y0345D01*
X03929Y03435D02*
X04019D01*
X0386Y03333D02*
Y03435D01*
Y03333D02*
X03924Y0327D01*
X0615Y0345D02*
X0633D01*
X03756Y0317D02*
X03855D01*
X03737Y03188D02*
X03756Y0317D01*
X0364Y03188D02*
X03737D01*
X03548D02*
X0364D01*
X03547Y0319D02*
X03548Y03188D01*
X03455Y0319D02*
X03547D01*
G54D16*
X05025Y0345D03*
X04925D03*
X04825D03*
X04725D03*
X04625D03*
X04525D03*
X04425D03*
X04325D03*
X04225D03*
X04125D03*
X05025Y0315D03*
X04925D03*
X04825D03*
X04725D03*
X04625D03*
X04525D03*
X04425D03*
X04325D03*
X04225D03*
X06615Y03145D03*
X06515D03*
X06615Y03245D03*
X06515D03*
X06615Y03345D03*
X06515D03*
X06615Y03445D03*
X0605Y0345D03*
X0595D03*
X0585D03*
X0575D03*
X0565D03*
X0555D03*
X0545D03*
X021Y0322D03*
G54D17*
X04125Y0315D03*
X06515Y03445D03*
X021Y0332D03*
G54D18*
X0615Y0345D03*
G54D19*
X02735Y0333D03*
X02575D03*
X02415D03*
Y0323D03*
X02575D03*
X02735D03*
G54D20*
X0287Y0328D03*
X02285D03*
G54D21*
X05187Y03302D03*
X05395Y03352D03*
M02*