%FSTAX23Y23*%
%MOIN*%
%SFA1B1*%

%IPPOS*%
%ADD22C,0.023622*%
%ADD23C,0.009843*%
%ADD24C,0.007874*%
%ADD25C,0.005984*%
%ADD26C,0.010000*%
%LNairdrums3-1*%
%LPD*%
G54D22*
X04094Y03235D02*
D01*
X04094Y03235*
X04094Y03236*
X04094Y03237*
X04094Y03238*
X04093Y03239*
X04093Y03239*
X04093Y0324*
X04092Y03241*
X04092Y03241*
X04091Y03242*
X04091Y03243*
X0409Y03243*
X0409Y03244*
X04089Y03244*
X04088Y03245*
X04088Y03245*
X04087Y03245*
X04086Y03246*
X04085Y03246*
X04084Y03246*
X04084Y03246*
X04083Y03246*
X04082*
X04081Y03246*
X0408Y03246*
X0408Y03246*
X04079Y03246*
X04078Y03245*
X04077Y03245*
X04076Y03245*
X04076Y03244*
X04075Y03244*
X04074Y03243*
X04074Y03243*
X04073Y03242*
X04073Y03241*
X04072Y03241*
X04072Y0324*
X04072Y03239*
X04071Y03239*
X04071Y03238*
X04071Y03237*
X04071Y03236*
X04071Y03235*
X04071Y03235*
X04071Y03234*
X04071Y03233*
X04071Y03232*
X04071Y03231*
X04071Y0323*
X04072Y0323*
X04072Y03229*
X04072Y03228*
X04073Y03228*
X04073Y03227*
X04074Y03226*
X04074Y03226*
X04075Y03225*
X04076Y03225*
X04076Y03224*
X04077Y03224*
X04078Y03224*
X04079Y03223*
X0408Y03223*
X0408Y03223*
X04081Y03223*
X04082Y03223*
X04083*
X04084Y03223*
X04084Y03223*
X04085Y03223*
X04086Y03223*
X04087Y03224*
X04088Y03224*
X04088Y03224*
X04089Y03225*
X0409Y03225*
X0409Y03226*
X04091Y03226*
X04091Y03227*
X04092Y03228*
X04092Y03228*
X04093Y03229*
X04093Y0323*
X04093Y0323*
X04094Y03231*
X04094Y03232*
X04094Y03233*
X04094Y03234*
X04094Y03235*
G54D23*
X04078Y0315D02*
D01*
X04078Y0315*
X04078Y0315*
X04078Y03151*
X04078Y03151*
X04078Y03151*
X04078Y03152*
X04078Y03152*
X04077Y03152*
X04077Y03152*
X04077Y03153*
X04077Y03153*
X04077Y03153*
X04076Y03153*
X04076Y03154*
X04076Y03154*
X04075Y03154*
X04075Y03154*
X04075Y03154*
X04075Y03154*
X04074Y03154*
X04074Y03154*
X04073Y03154*
X04073*
X04073Y03154*
X04072Y03154*
X04072Y03154*
X04072Y03154*
X04071Y03154*
X04071Y03154*
X04071Y03154*
X04071Y03154*
X0407Y03153*
X0407Y03153*
X0407Y03153*
X0407Y03153*
X04069Y03152*
X04069Y03152*
X04069Y03152*
X04069Y03152*
X04069Y03151*
X04069Y03151*
X04069Y03151*
X04068Y0315*
X04068Y0315*
X04068Y0315*
X04068Y03149*
X04068Y03149*
X04069Y03148*
X04069Y03148*
X04069Y03148*
X04069Y03147*
X04069Y03147*
X04069Y03147*
X04069Y03147*
X0407Y03146*
X0407Y03146*
X0407Y03146*
X0407Y03146*
X04071Y03145*
X04071Y03145*
X04071Y03145*
X04071Y03145*
X04072Y03145*
X04072Y03145*
X04072Y03145*
X04073Y03145*
X04073Y03145*
X04073*
X04074Y03145*
X04074Y03145*
X04075Y03145*
X04075Y03145*
X04075Y03145*
X04075Y03145*
X04076Y03145*
X04076Y03145*
X04076Y03146*
X04077Y03146*
X04077Y03146*
X04077Y03146*
X04077Y03147*
X04077Y03147*
X04078Y03147*
X04078Y03147*
X04078Y03148*
X04078Y03148*
X04078Y03148*
X04078Y03149*
X04078Y03149*
X04078Y0315*
G54D24*
X04043Y03275D02*
D01*
X04045Y03275*
X04046Y03275*
X04048Y03275*
X0405Y03275*
X04052Y03276*
X04053Y03277*
X04055Y03277*
X04056Y03278*
X04058Y03279*
X04059Y0328*
X0406Y03282*
X04062Y03283*
X04063Y03284*
X04064Y03286*
X04065Y03287*
X04065Y03289*
X04066Y0329*
X04067Y03292*
X04067Y03293*
X04068Y03295*
X04068Y03297*
X04068Y03299*
Y033*
X04068Y03302*
X04068Y03304*
X04067Y03306*
X04067Y03307*
X04066Y03309*
X04065Y0331*
X04065Y03312*
X04064Y03313*
X04063Y03315*
X04062Y03316*
X0406Y03317*
X04059Y03319*
X04058Y0332*
X04056Y03321*
X04055Y03322*
X04053Y03322*
X04052Y03323*
X0405Y03324*
X04048Y03324*
X04046Y03324*
X04045Y03324*
X04043Y03325*
X03702Y03247D02*
Y03322D01*
X03577Y03247D02*
Y03322D01*
X05106Y03195D02*
Y03404D01*
X04043Y03325D02*
Y03404D01*
Y03195D02*
Y03275D01*
Y03404D02*
X05106D01*
X04043Y03195D02*
X05106D01*
X06465Y03095D02*
Y03495D01*
X06665Y03095D02*
Y03495D01*
X06465D02*
X06665D01*
X06465Y03095D02*
X06665D01*
X054Y034D02*
Y035D01*
X062*
Y034D02*
Y035D01*
X054Y034D02*
X062D01*
X0205Y0317D02*
X0215D01*
X0205D02*
Y0337D01*
X0215*
Y0317D02*
Y0337D01*
G54D25*
X03345Y03386D02*
X03417D01*
X03345Y03206D02*
X03417D01*
X03345Y03353D02*
X03417D01*
X03345Y03173D02*
X03417D01*
G54D26*
X03495Y03465D02*
X03485Y03475D01*
X03465*
X03455Y03465*
Y03425*
X03465Y03415*
X03485*
X03495Y03425*
X03515Y03415D02*
X03534D01*
X03524*
Y03475*
X03515Y03465*
X02935Y0342D02*
Y0337D01*
X02945Y0336*
X02965*
X02975Y0337*
Y0342*
X03034Y0336D02*
X02995D01*
X03034Y034*
Y0341*
X03024Y0342*
X03004*
X02995Y0341*
X03945Y03365D02*
X03935Y03375D01*
X03915*
X03905Y03365*
Y03325*
X03915Y03315*
X03935*
X03945Y03325*
X03994Y03315D02*
Y03375D01*
X03965Y03345*
X04004*
X04155D02*
Y03295D01*
X04165Y03285*
X04185*
X04195Y03295*
Y03345*
X04215Y03285D02*
X04234D01*
X04224*
Y03345*
X04215Y03335*
X0632Y0315D02*
Y0321D01*
X0635*
X0636Y032*
Y0318*
X0635Y0317*
X0632*
X0638Y032D02*
X06389Y0321D01*
X06409*
X06419Y032*
Y0319*
X06409Y0318*
X06399*
X06409*
X06419Y0317*
Y0316*
X06409Y0315*
X06389*
X0638Y0316*
X06345Y0338D02*
X06335Y0339D01*
X06315*
X06305Y0338*
Y0334*
X06315Y0333*
X06335*
X06345Y0334*
X06365Y0338D02*
X06374Y0339D01*
X06394*
X06404Y0338*
Y0337*
X06394Y0336*
X06384*
X06394*
X06404Y0335*
Y0334*
X06394Y0333*
X06374*
X06365Y0334*
X053Y03303D02*
X0529Y03313D01*
X0527*
X0526Y03303*
Y03263*
X0527Y03253*
X0529*
X053Y03263*
X05359Y03253D02*
X0532D01*
X05359Y03293*
Y03303*
X05349Y03313*
X05329*
X0532Y03303*
X0546Y0332D02*
Y0338D01*
X0549*
X055Y0337*
Y0335*
X0549Y0334*
X0546*
X05559Y0332D02*
X0552D01*
X05559Y0336*
Y0337*
X05549Y0338*
X05529*
X0552Y0337*
X03827Y0324D02*
Y033D01*
X03857*
X03867Y0329*
Y0327*
X03857Y0326*
X03827*
X03847D02*
X03867Y0324D01*
X03887D02*
X03907D01*
X03897*
Y033*
X03887Y0329*
X02215Y03452D02*
X02205Y03462D01*
X02185*
X02175Y03452*
Y03442*
X02185Y03432*
X02205*
X02215Y03422*
Y03412*
X02205Y03402*
X02185*
X02175Y03412*
X02235Y03462D02*
Y03402D01*
X02254Y03422*
X02274Y03402*
Y03462*
X02294Y03402D02*
X02314D01*
X02304*
Y03462*
X02294Y03452*
X03Y03305D02*
Y03325D01*
X0299Y03335*
X0295*
X0294Y03325*
Y03305*
X0295Y03295*
X0299*
X03Y03305*
X0294Y03275D02*
X03D01*
X0294Y03235*
X03*
X02235Y03325D02*
Y03345D01*
X02225Y03355*
X02185*
X02175Y03345*
Y03325*
X02185Y03315*
X02225*
X02235Y03325*
Y03255D02*
Y03295D01*
X02205*
Y03275*
Y03295*
X02175*
X02235Y03195D02*
Y03235D01*
X02205*
Y03215*
Y03235*
X02175*
X02055Y03404D02*
Y03463D01*
X02085*
X02095Y03453*
Y03433*
X02085Y03423*
X02055*
X02115Y03404D02*
X02135D01*
X02125*
Y03463*
X02115Y03453*
M02*