%FSTAX23Y23*%
%MOIN*%
%SFA1B1*%

%IPPOS*%
%ADD41C,0.005000*%
%LNairdrums3-1*%
%LPD*%
G54D41*
X05007Y0345D02*
X05042D01*
X05025Y03432D02*
Y03467D01*
X04907Y0345D02*
X04942D01*
X04925Y03432D02*
Y03467D01*
X04807Y0345D02*
X04842D01*
X04825Y03432D02*
Y03467D01*
X04707Y0345D02*
X04742D01*
X04725Y03432D02*
Y03467D01*
X04607Y0345D02*
X04642D01*
X04625Y03432D02*
Y03467D01*
X04507Y0345D02*
X04542D01*
X04525Y03432D02*
Y03467D01*
X04407Y0345D02*
X04442D01*
X04425Y03432D02*
Y03467D01*
X04307Y0345D02*
X04342D01*
X04325Y03432D02*
Y03467D01*
X04207Y0345D02*
X04242D01*
X04225Y03432D02*
Y03467D01*
X04107Y0345D02*
X04142D01*
X04125Y03432D02*
Y03467D01*
X05007Y0315D02*
X05042D01*
X05025Y03132D02*
Y03167D01*
X04907Y0315D02*
X04942D01*
X04925Y03132D02*
Y03167D01*
X04807Y0315D02*
X04842D01*
X04825Y03132D02*
Y03167D01*
X04707Y0315D02*
X04742D01*
X04725Y03132D02*
Y03167D01*
X04607Y0315D02*
X04642D01*
X04625Y03132D02*
Y03167D01*
X04507Y0315D02*
X04542D01*
X04525Y03132D02*
Y03167D01*
X04407Y0315D02*
X04442D01*
X04425Y03132D02*
Y03167D01*
X04307Y0315D02*
X04342D01*
X04325Y03132D02*
Y03167D01*
X04207Y0315D02*
X04242D01*
X04225Y03132D02*
Y03167D01*
X04107Y0315D02*
X04142D01*
X04125Y03132D02*
Y03167D01*
X06597Y03145D02*
X06632D01*
X06615Y03127D02*
Y03162D01*
X06497Y03145D02*
X06532D01*
X06515Y03127D02*
Y03162D01*
X06597Y03245D02*
X06632D01*
X06615Y03227D02*
Y03262D01*
X06497Y03245D02*
X06532D01*
X06515Y03227D02*
Y03262D01*
X06597Y03345D02*
X06632D01*
X06615Y03327D02*
Y03362D01*
X06497Y03345D02*
X06532D01*
X06515Y03327D02*
Y03362D01*
X06597Y03445D02*
X06632D01*
X06615Y03427D02*
Y03462D01*
X06497Y03445D02*
X06532D01*
X06515Y03427D02*
Y03462D01*
X06132Y0345D02*
X06167D01*
X0615Y03432D02*
Y03467D01*
X06032Y0345D02*
X06067D01*
X0605Y03432D02*
Y03467D01*
X05932Y0345D02*
X05967D01*
X0595Y03432D02*
Y03467D01*
X05832Y0345D02*
X05867D01*
X0585Y03432D02*
Y03467D01*
X05732Y0345D02*
X05767D01*
X0575Y03432D02*
Y03467D01*
X05632Y0345D02*
X05667D01*
X0565Y03432D02*
Y03467D01*
X05532Y0345D02*
X05567D01*
X0555Y03432D02*
Y03467D01*
X05432Y0345D02*
X05467D01*
X0545Y03432D02*
Y03467D01*
X02711Y0333D02*
X02758D01*
X02735Y03306D02*
Y03353D01*
X02551Y0333D02*
X02598D01*
X02575Y03306D02*
Y03353D01*
X02391Y0333D02*
X02438D01*
X02415Y03306D02*
Y03353D01*
X02391Y0323D02*
X02438D01*
X02415Y03206D02*
Y03253D01*
X02551Y0323D02*
X02598D01*
X02575Y03206D02*
Y03253D01*
X02711Y0323D02*
X02758D01*
X02735Y03206D02*
Y03253D01*
X02855Y0328D02*
X02885D01*
X0287Y03265D02*
Y03295D01*
X0227Y0328D02*
X023D01*
X02285Y03265D02*
Y03295D01*
X02082Y0332D02*
X02117D01*
X021Y03302D02*
Y03337D01*
X02082Y0322D02*
X02117D01*
X021Y03202D02*
Y03237D01*
X05172Y03302D02*
X05203D01*
X05187Y03287D02*
Y03318D01*
X0538Y03352D02*
X05411D01*
X05395Y03336D02*
Y03367D01*
M02*