%FSTAX23Y23*%
%MOIN*%
%SFA1B1*%

%IPPOS*%
%ADD26C,0.010000*%
%ADD41C,0.005000*%
%ADD42C,0.006654*%
%ADD43C,0.015984*%
%ADD44C,0.007992*%
%ADD45C,0.014016*%
%LNairdrums3-1*%
%LPD*%
G54D26*
X06924Y0316D02*
Y031D01*
X06954*
X06964Y0311*
Y0315*
X06954Y0316*
X06924*
X06984Y0314D02*
Y031D01*
Y0312*
X06994Y0313*
X07004Y0314*
X07014*
X07044Y031D02*
X07064D01*
X07054*
Y0314*
X07044*
X07094Y031D02*
X07114D01*
X07104*
Y0316*
X07094*
X07144Y031D02*
X07164D01*
X07154*
Y0316*
X07144*
X07254D02*
Y031D01*
X07284*
X07294Y0311*
Y0315*
X07284Y0316*
X07254*
X07314Y0314D02*
Y031D01*
Y0312*
X07324Y0313*
X07334Y0314*
X07344*
X07384D02*
X07404D01*
X07414Y0313*
Y031*
X07384*
X07374Y0311*
X07384Y0312*
X07414*
X07434Y0314D02*
Y0311D01*
X07444Y031*
X07454Y0311*
X07464Y031*
X07474Y0311*
Y0314*
X07494Y031D02*
X07514D01*
X07504*
Y0314*
X07494*
X07544Y031D02*
Y0314D01*
X07574*
X07584Y0313*
Y031*
X07624Y0308D02*
X07634D01*
X07644Y0309*
Y0314*
X07614*
X07604Y0313*
Y0311*
X07614Y031*
X07644*
X07664D02*
Y0311D01*
X07674*
Y031*
X07664*
X07468Y0392D02*
X07428D01*
X07468Y0396*
Y0397*
X07458Y0398*
X07438*
X07428Y0397*
X08124D02*
X08134Y0398D01*
X08154*
X08164Y0397*
Y0393*
X08154Y0392*
X08134*
X08124Y0393*
Y0397*
X08184Y0392D02*
Y0393D01*
X08194*
Y0392*
X08184*
X08234Y0397D02*
X08244Y0398D01*
X08264*
X08274Y0397*
Y0396*
X08264Y0395*
X08274Y0394*
Y0393*
X08264Y0392*
X08244*
X08234Y0393*
Y0394*
X08244Y0395*
X08234Y0396*
Y0397*
X08244Y0395D02*
X08264D01*
X08294Y0392D02*
Y0396D01*
X08304*
X08314Y0395*
Y0392*
Y0395*
X08324Y0396*
X08334Y0395*
Y0392*
X08354D02*
Y0396D01*
X08364*
X08374Y0395*
Y0392*
Y0395*
X08384Y0396*
X08394Y0395*
Y0392*
X08493D02*
X08473Y0394D01*
Y0396*
X08493Y0398*
X08523Y0397D02*
X08533Y0398D01*
X08553*
X08563Y0397*
Y0396*
X08553Y0395*
X08543*
X08553*
X08563Y0394*
Y0393*
X08553Y0392*
X08533*
X08523Y0393*
X08583Y0392D02*
X08603D01*
X08593*
Y0398*
X08583Y0397*
X08633Y0392D02*
Y0393D01*
X08643*
Y0392*
X08633*
X08713D02*
Y0398D01*
X08683Y0395*
X08723*
X08743Y0393D02*
X08753Y0392D01*
X08773*
X08783Y0393*
Y0397*
X08773Y0398*
X08753*
X08743Y0397*
Y0396*
X08753Y0395*
X08783*
X08843Y0398D02*
X08823Y0397D01*
X08803Y0395*
Y0393*
X08813Y0392*
X08833*
X08843Y0393*
Y0394*
X08833Y0395*
X08803*
X08863Y0392D02*
Y0396D01*
X08873*
X08883Y0395*
Y0392*
Y0395*
X08893Y0396*
X08903Y0395*
Y0392*
X08923D02*
X08943D01*
X08933*
Y0396*
X08923*
X08973Y0392D02*
X08993D01*
X08983*
Y0398*
X08973*
X09023Y0392D02*
X09043Y0394D01*
Y0396*
X09023Y0398*
X11819Y0392D02*
Y0398D01*
X11849*
X11859Y0397*
Y0395*
X11849Y0394*
X11819*
X11879Y0398D02*
X11918D01*
X11898*
Y0392*
X11938Y0398D02*
Y0392D01*
Y0395*
X11978*
Y0398*
Y0392*
X12322D02*
Y0398D01*
X12352*
X12362Y0397*
Y0395*
X12352Y0394*
X12322*
X12342D02*
X12362Y0392D01*
X12392D02*
X12412D01*
X12422Y0393*
Y0395*
X12412Y0396*
X12392*
X12382Y0395*
Y0393*
X12392Y0392*
X12442Y0396D02*
Y0393D01*
X12452Y0392*
X12482*
Y0396*
X12502Y0392D02*
Y0396D01*
X12532*
X12542Y0395*
Y0392*
X12602Y0398D02*
Y0392D01*
X12572*
X12562Y0393*
Y0395*
X12572Y0396*
X12602*
X07428Y0385D02*
X07438Y0386D01*
X07458*
X07468Y0385*
Y0384*
X07458Y0383*
X07448*
X07458*
X07468Y0382*
Y0381*
X07458Y038*
X07438*
X07428Y0381*
X07488Y0385D02*
X07498Y0386D01*
X07518*
X07528Y0385*
Y0384*
X07518Y0383*
X07528Y0382*
Y0381*
X07518Y038*
X07498*
X07488Y0381*
Y0382*
X07498Y0383*
X07488Y0384*
Y0385*
X07498Y0383D02*
X07518D01*
X08124Y0385D02*
X08134Y0386D01*
X08154*
X08164Y0385*
Y0381*
X08154Y038*
X08134*
X08124Y0381*
Y0385*
X08184Y038D02*
Y0381D01*
X08194*
Y038*
X08184*
X08234Y0381D02*
X08244Y038D01*
X08264*
X08274Y0381*
Y0385*
X08264Y0386*
X08244*
X08234Y0385*
Y0384*
X08244Y0383*
X08274*
X08294Y038D02*
Y0384D01*
X08304*
X08314Y0383*
Y038*
Y0383*
X08324Y0384*
X08334Y0383*
Y038*
X08354D02*
Y0384D01*
X08364*
X08374Y0383*
Y038*
Y0383*
X08384Y0384*
X08394Y0383*
Y038*
X08493D02*
X08473Y0382D01*
Y0384*
X08493Y0386*
X08523Y0385D02*
X08533Y0386D01*
X08553*
X08563Y0385*
Y0384*
X08553Y0383*
X08543*
X08553*
X08563Y0382*
Y0381*
X08553Y038*
X08533*
X08523Y0381*
X08623Y0386D02*
X08583D01*
Y0383*
X08603Y0384*
X08613*
X08623Y0383*
Y0381*
X08613Y038*
X08593*
X08583Y0381*
X08643Y038D02*
Y0381D01*
X08653*
Y038*
X08643*
X08723D02*
Y0386D01*
X08693Y0383*
X08733*
X08753Y0385D02*
X08763Y0386D01*
X08783*
X08793Y0385*
Y0384*
X08783Y0383*
X08773*
X08783*
X08793Y0382*
Y0381*
X08783Y038*
X08763*
X08753Y0381*
X08813Y0385D02*
X08823Y0386D01*
X08843*
X08853Y0385*
Y0384*
X08843Y0383*
X08833*
X08843*
X08853Y0382*
Y0381*
X08843Y038*
X08823*
X08813Y0381*
X08873Y038D02*
Y0384D01*
X08883*
X08893Y0383*
Y038*
Y0383*
X08903Y0384*
X08913Y0383*
Y038*
X08933D02*
X08953D01*
X08943*
Y0384*
X08933*
X08983Y038D02*
X09003D01*
X08993*
Y0386*
X08983*
X09033Y038D02*
X09053Y0382D01*
Y0384*
X09033Y0386*
X11819Y038D02*
Y0386D01*
X11849*
X11859Y0385*
Y0383*
X11849Y0382*
X11819*
X11879Y0386D02*
X11918D01*
X11898*
Y038*
X11938Y0386D02*
Y038D01*
Y0383*
X11978*
Y0386*
Y038*
X12322D02*
Y0386D01*
X12352*
X12362Y0385*
Y0383*
X12352Y0382*
X12322*
X12342D02*
X12362Y038D01*
X12392D02*
X12412D01*
X12422Y0381*
Y0383*
X12412Y0384*
X12392*
X12382Y0383*
Y0381*
X12392Y038*
X12442Y0384D02*
Y0381D01*
X12452Y038*
X12482*
Y0384*
X12502Y038D02*
Y0384D01*
X12532*
X12542Y0383*
Y038*
X12602Y0386D02*
Y038D01*
X12572*
X12562Y0381*
Y0383*
X12572Y0384*
X12602*
X07468Y0374D02*
X07448Y0373D01*
X07428Y0371*
Y0369*
X07438Y0368*
X07458*
X07468Y0369*
Y037*
X07458Y0371*
X07428*
X08124Y0368D02*
X08144D01*
X08134*
Y0374*
X08124Y0373*
X08174Y0368D02*
Y0369D01*
X08184*
Y0368*
X08174*
X08264D02*
X08224D01*
X08264Y0372*
Y0373*
X08254Y0374*
X08234*
X08224Y0373*
X08284Y0368D02*
Y0372D01*
X08294*
X08304Y0371*
Y0368*
Y0371*
X08314Y0372*
X08324Y0371*
Y0368*
X08344D02*
Y0372D01*
X08354*
X08364Y0371*
Y0368*
Y0371*
X08374Y0372*
X08384Y0371*
Y0368*
X08483D02*
X08463Y037D01*
Y0372*
X08483Y0374*
X08543Y0368D02*
Y0374D01*
X08513Y0371*
X08553*
X08573Y0374D02*
X08613D01*
Y0373*
X08573Y0369*
Y0368*
X08633D02*
Y0369D01*
X08643*
Y0368*
X08633*
X08723D02*
X08683D01*
X08723Y0372*
Y0373*
X08713Y0374*
X08693*
X08683Y0373*
X08773Y0368D02*
Y0374D01*
X08743Y0371*
X08783*
X08833Y0368D02*
Y0374D01*
X08803Y0371*
X08843*
X08863Y0368D02*
Y0372D01*
X08873*
X08883Y0371*
Y0368*
Y0371*
X08893Y0372*
X08903Y0371*
Y0368*
X08923D02*
X08943D01*
X08933*
Y0372*
X08923*
X08973Y0368D02*
X08993D01*
X08983*
Y0374*
X08973*
X09023Y0368D02*
X09043Y037D01*
Y0372*
X09023Y0374*
X11819Y0368D02*
Y0374D01*
X11849*
X11859Y0373*
Y0371*
X11849Y037*
X11819*
X11879Y0374D02*
X11918D01*
X11898*
Y0368*
X11938Y0374D02*
Y0368D01*
Y0371*
X11978*
Y0374*
Y0368*
X12322D02*
Y0374D01*
X12352*
X12362Y0373*
Y0371*
X12352Y037*
X12322*
X12342D02*
X12362Y0368D01*
X12392D02*
X12412D01*
X12422Y0369*
Y0371*
X12412Y0372*
X12392*
X12382Y0371*
Y0369*
X12392Y0368*
X12442Y0372D02*
Y0369D01*
X12452Y0368*
X12482*
Y0372*
X12502Y0368D02*
Y0372D01*
X12532*
X12542Y0371*
Y0368*
X12602Y0374D02*
Y0368D01*
X12572*
X12562Y0369*
Y0371*
X12572Y0372*
X12602*
X07468Y0356D02*
X07428D01*
X07468Y036*
Y0361*
X07458Y0362*
X07438*
X07428Y0361*
X08124D02*
X08134Y0362D01*
X08154*
X08164Y0361*
Y0357*
X08154Y0356*
X08134*
X08124Y0357*
Y0361*
X08184Y0356D02*
Y0357D01*
X08194*
Y0356*
X08184*
X08234Y0362D02*
X08274D01*
Y0361*
X08234Y0357*
Y0356*
X08334Y0362D02*
X08314Y0361D01*
X08294Y0359*
Y0357*
X08304Y0356*
X08324*
X08334Y0357*
Y0358*
X08324Y0359*
X08294*
X08394Y0356D02*
X08354D01*
X08394Y036*
Y0361*
X08384Y0362*
X08364*
X08354Y0361*
X08414Y0356D02*
Y036D01*
X08424*
X08434Y0359*
Y0356*
Y0359*
X08443Y036*
X08453Y0359*
Y0356*
X08473D02*
Y036D01*
X08483*
X08493Y0359*
Y0356*
Y0359*
X08503Y036*
X08513Y0359*
Y0356*
X08613D02*
X08593Y0358D01*
Y036*
X08613Y0362*
X08643Y0361D02*
X08653Y0362D01*
X08673*
X08683Y0361*
Y036*
X08673Y0359*
X08663*
X08673*
X08683Y0358*
Y0357*
X08673Y0356*
X08653*
X08643Y0357*
X08703Y0361D02*
X08713Y0362D01*
X08733*
X08743Y0361*
Y0357*
X08733Y0356*
X08713*
X08703Y0357*
Y0361*
X08763Y0356D02*
Y036D01*
X08773*
X08783Y0359*
Y0356*
Y0359*
X08793Y036*
X08803Y0359*
Y0356*
X08823D02*
X08843D01*
X08833*
Y036*
X08823*
X08873Y0356D02*
X08893D01*
X08883*
Y0362*
X08873*
X08923Y0356D02*
X08943Y0358D01*
Y036*
X08923Y0362*
X09507Y0356D02*
X09467D01*
X09507Y036*
Y0361*
X09497Y0362*
X09477*
X09467Y0361*
X09527Y0356D02*
Y0357D01*
X09537*
Y0356*
X09527*
X09577Y0361D02*
X09587Y0362D01*
X09607*
X09617Y0361*
Y036*
X09607Y0359*
X09597*
X09607*
X09617Y0358*
Y0357*
X09607Y0356*
X09587*
X09577Y0357*
X09637Y0356D02*
Y036D01*
X09647*
X09657Y0359*
Y0356*
Y0359*
X09667Y036*
X09677Y0359*
Y0356*
X09697D02*
Y036D01*
X09707*
X09717Y0359*
Y0356*
Y0359*
X09727Y036*
X09737Y0359*
Y0356*
X09837D02*
X09817Y0358D01*
Y036*
X09837Y0362*
X09867Y0357D02*
X09877Y0356D01*
X09897*
X09907Y0357*
Y0361*
X09897Y0362*
X09877*
X09867Y0361*
Y036*
X09877Y0359*
X09907*
X09927Y0361D02*
X09937Y0362D01*
X09957*
X09967Y0361*
Y0357*
X09957Y0356*
X09937*
X09927Y0357*
Y0361*
X09987Y0356D02*
Y0357D01*
X09997*
Y0356*
X09987*
X10077Y0362D02*
X10037D01*
Y0359*
X10057Y036*
X10067*
X10077Y0359*
Y0357*
X10067Y0356*
X10047*
X10037Y0357*
X10137Y0362D02*
X10097D01*
Y0359*
X10117Y036*
X10127*
X10137Y0359*
Y0357*
X10127Y0356*
X10107*
X10097Y0357*
X10157Y0356D02*
X10177D01*
X10167*
Y0362*
X10157Y0361*
X10207Y0356D02*
Y036D01*
X10217*
X10227Y0359*
Y0356*
Y0359*
X10237Y036*
X10247Y0359*
Y0356*
X10267D02*
X10287D01*
X10277*
Y036*
X10267*
X10317Y0356D02*
X10337D01*
X10327*
Y0362*
X10317*
X10367Y0356D02*
X10387Y0358D01*
Y036*
X10367Y0362*
X10607Y0356D02*
X10627D01*
X10617*
Y0362*
X10607Y0361*
X10657Y0356D02*
Y0357D01*
X10667*
Y0356*
X10657*
X10747Y0362D02*
X10707D01*
Y0359*
X10727Y036*
X10737*
X10747Y0359*
Y0357*
X10737Y0356*
X10717*
X10707Y0357*
X10767Y0361D02*
X10777Y0362D01*
X10797*
X10807Y0361*
Y036*
X10797Y0359*
X10787*
X10797*
X10807Y0358*
Y0357*
X10797Y0356*
X10777*
X10767Y0357*
X10827Y0361D02*
X10837Y0362D01*
X10857*
X10867Y0361*
Y036*
X10857Y0359*
X10867Y0358*
Y0357*
X10857Y0356*
X10837*
X10827Y0357*
Y0358*
X10837Y0359*
X10827Y036*
Y0361*
X10837Y0359D02*
X10857D01*
X10887Y0356D02*
Y036D01*
X10897*
X10907Y0359*
Y0356*
Y0359*
X10917Y036*
X10927Y0359*
Y0356*
X10947D02*
Y036D01*
X10957*
X10967Y0359*
Y0356*
Y0359*
X10977Y036*
X10987Y0359*
Y0356*
X11087D02*
X11067Y0358D01*
Y036*
X11087Y0362*
X11157D02*
X11137Y0361D01*
X11117Y0359*
Y0357*
X11127Y0356*
X11147*
X11157Y0357*
Y0358*
X11147Y0359*
X11117*
X11177Y0361D02*
X11187Y0362D01*
X11207*
X11217Y0361*
Y0357*
X11207Y0356*
X11187*
X11177Y0357*
Y0361*
X11237Y0356D02*
Y0357D01*
X11247*
Y0356*
X11237*
X11327Y0362D02*
X11287D01*
Y0359*
X11307Y036*
X11317*
X11327Y0359*
Y0357*
X11317Y0356*
X11297*
X11287Y0357*
X11387Y0362D02*
X11347D01*
Y0359*
X11367Y036*
X11377*
X11387Y0359*
Y0357*
X11377Y0356*
X11357*
X11347Y0357*
X11407Y0356D02*
X11427D01*
X11417*
Y0362*
X11407Y0361*
X11457Y0356D02*
Y036D01*
X11467*
X11477Y0359*
Y0356*
Y0359*
X11487Y036*
X11497Y0359*
Y0356*
X11517D02*
X11537D01*
X11527*
Y036*
X11517*
X11567Y0356D02*
X11587D01*
X11577*
Y0362*
X11567*
X11617Y0356D02*
X11637Y0358D01*
Y036*
X11617Y0362*
X11819Y0356D02*
Y0362D01*
X11849*
X11859Y0361*
Y0359*
X11849Y0358*
X11819*
X11879Y0362D02*
X11918D01*
X11898*
Y0356*
X11938Y0362D02*
Y0356D01*
Y0359*
X11978*
Y0362*
Y0356*
X12362Y0361D02*
X12352Y0362D01*
X12332*
X12322Y0361*
Y036*
X12332Y0359*
X12352*
X12362Y0358*
Y0357*
X12352Y0356*
X12332*
X12322Y0357*
X12382Y0356D02*
X12402D01*
X12392*
Y0362*
X12382*
X12442Y0356D02*
X12462D01*
X12472Y0357*
Y0359*
X12462Y036*
X12442*
X12432Y0359*
Y0357*
X12442Y0356*
X12502Y0361D02*
Y036D01*
X12492*
X12512*
X12502*
Y0357*
X12512Y0356*
X07458Y0344D02*
Y035D01*
X07428Y0347*
X07468*
X07488Y0349D02*
X07498Y035D01*
X07518*
X07528Y0349*
Y0348*
X07518Y0347*
X07528Y0346*
Y0345*
X07518Y0344*
X07498*
X07488Y0345*
Y0346*
X07498Y0347*
X07488Y0348*
Y0349*
X07498Y0347D02*
X07518D01*
X07636Y035D02*
X07676D01*
X07656*
Y0344*
X07706D02*
X07726D01*
X07736Y0345*
Y0347*
X07726Y0348*
X07706*
X07696Y0347*
Y0345*
X07706Y0344*
X07766Y0349D02*
Y0348D01*
X07756*
X07776*
X07766*
Y0345*
X07776Y0344*
X07816Y0348D02*
X07836D01*
X07846Y0347*
Y0344*
X07816*
X07806Y0345*
X07816Y0346*
X07846*
X07866Y0344D02*
X07886D01*
X07876*
Y035*
X07866*
X08997Y0334D02*
X09037D01*
X08997Y0336D02*
X09037D01*
X09157Y0337D02*
X09147Y0338D01*
X09127*
X09117Y0337*
Y0333*
X09127Y0332*
X09147*
X09157Y0333*
X09187Y0336D02*
X09207D01*
X09217Y0335*
Y0332*
X09187*
X09177Y0333*
X09187Y0334*
X09217*
X09237Y0332D02*
X09257D01*
X09247*
Y0338*
X09237*
X09327Y0336D02*
X09297D01*
X09287Y0335*
Y0333*
X09297Y0332*
X09327*
X09347Y0336D02*
Y0333D01*
X09357Y0332*
X09387*
Y0336*
X09407Y0332D02*
X09427D01*
X09417*
Y0338*
X09407*
X09467Y0336D02*
X09487D01*
X09497Y0335*
Y0332*
X09467*
X09457Y0333*
X09467Y0334*
X09497*
X09527Y0337D02*
Y0336D01*
X09517*
X09537*
X09527*
Y0333*
X09537Y0332*
X09597D02*
X09577D01*
X09567Y0333*
Y0335*
X09577Y0336*
X09597*
X09607Y0335*
Y0334*
X09567*
X09667Y0338D02*
Y0332D01*
X09637*
X09627Y0333*
Y0335*
X09637Y0336*
X09667*
X09757Y0332D02*
Y0337D01*
Y0335*
X09747*
X09767*
X09757*
Y0337*
X09767Y0338*
X09797Y0336D02*
Y0332D01*
Y0334*
X09807Y0335*
X09817Y0336*
X09827*
X09867Y0332D02*
X09887D01*
X09897Y0333*
Y0335*
X09887Y0336*
X09867*
X09857Y0335*
Y0333*
X09867Y0332*
X09917D02*
Y0336D01*
X09927*
X09937Y0335*
Y0332*
Y0335*
X09947Y0336*
X09957Y0335*
Y0332*
X10047Y0337D02*
Y0336D01*
X10037*
X10057*
X10047*
Y0333*
X10057Y0332*
X10097D02*
X10117D01*
X10127Y0333*
Y0335*
X10117Y0336*
X10097*
X10087Y0335*
Y0333*
X10097Y0332*
X10157D02*
X10177D01*
X10187Y0333*
Y0335*
X10177Y0336*
X10157*
X10147Y0335*
Y0333*
X10157Y0332*
X10207D02*
X10227D01*
X10217*
Y0338*
X10207*
X10317Y0332D02*
X10347D01*
X10357Y0333*
X10347Y0334*
X10327*
X10317Y0335*
X10327Y0336*
X10357*
X10387Y0337D02*
Y0336D01*
X10377*
X10397*
X10387*
Y0333*
X10397Y0332*
X10437Y0336D02*
X10457D01*
X10467Y0335*
Y0332*
X10437*
X10427Y0333*
X10437Y0334*
X10467*
X10487Y0336D02*
Y0332D01*
Y0334*
X10497Y0335*
X10507Y0336*
X10517*
X10557Y0337D02*
Y0336D01*
X10547*
X10567*
X10557*
Y0333*
X10567Y0332*
X10697Y0336D02*
X10667D01*
X10657Y0335*
Y0333*
X10667Y0332*
X10697*
X10747D02*
X10727D01*
X10717Y0333*
Y0335*
X10727Y0336*
X10747*
X10757Y0335*
Y0334*
X10717*
X10777Y0332D02*
Y0336D01*
X10807*
X10817Y0335*
Y0332*
X10847Y0337D02*
Y0336D01*
X10837*
X10857*
X10847*
Y0333*
X10857Y0332*
X10887Y0336D02*
Y0332D01*
Y0334*
X10897Y0335*
X10907Y0336*
X10917*
X10977Y0332D02*
X10957D01*
X10947Y0333*
Y0335*
X10957Y0336*
X10977*
X10987Y0335*
Y0334*
X10947*
X11067Y033D02*
Y0336D01*
X11097*
X11107Y0335*
Y0333*
X11097Y0332*
X11067*
X11137D02*
X11157D01*
X11167Y0333*
Y0335*
X11157Y0336*
X11137*
X11127Y0335*
Y0333*
X11137Y0332*
X11187D02*
X11217D01*
X11227Y0333*
X11217Y0334*
X11197*
X11187Y0335*
X11197Y0336*
X11227*
X11247Y0332D02*
X11267D01*
X11257*
Y0336*
X11247*
X11307Y0337D02*
Y0336D01*
X11297*
X11317*
X11307*
Y0333*
X11317Y0332*
X11347D02*
X11367D01*
X11357*
Y0336*
X11347*
X11407Y0332D02*
X11427D01*
X11437Y0333*
Y0335*
X11427Y0336*
X11407*
X11397Y0335*
Y0333*
X11407Y0332*
X11457D02*
Y0336D01*
X11486*
X11496Y0335*
Y0332*
X11586Y0337D02*
Y0336D01*
X11576*
X11596*
X11586*
Y0333*
X11596Y0332*
X11636D02*
X11656D01*
X11666Y0333*
Y0335*
X11656Y0336*
X11636*
X11626Y0335*
Y0333*
X11636Y0332*
X11756Y0337D02*
Y0336D01*
X11746*
X11766*
X11756*
Y0333*
X11766Y0332*
X11806D02*
X11826D01*
X11836Y0333*
Y0335*
X11826Y0336*
X11806*
X11796Y0335*
Y0333*
X11806Y0332*
X11866D02*
X11886D01*
X11896Y0333*
Y0335*
X11886Y0336*
X11866*
X11856Y0335*
Y0333*
X11866Y0332*
X11916D02*
X11936D01*
X11926*
Y0338*
X11916*
X12056Y0332D02*
X12036D01*
X12026Y0333*
Y0335*
X12036Y0336*
X12056*
X12066Y0335*
Y0334*
X12026*
X12086Y0332D02*
Y0336D01*
X12116*
X12126Y0335*
Y0332*
X12186Y0338D02*
Y0332D01*
X12156*
X12146Y0333*
Y0335*
X12156Y0336*
X12186*
X12306D02*
X12276D01*
X12266Y0335*
Y0333*
X12276Y0332*
X12306*
X12356D02*
X12336D01*
X12326Y0333*
Y0335*
X12336Y0336*
X12356*
X12366Y0335*
Y0334*
X12326*
X12386Y0332D02*
Y0336D01*
X12416*
X12426Y0335*
Y0332*
X12456Y0337D02*
Y0336D01*
X12446*
X12466*
X12456*
Y0333*
X12466Y0332*
X12496Y0336D02*
Y0332D01*
Y0334*
X12506Y0335*
X12516Y0336*
X12526*
X12586Y0332D02*
X12566D01*
X12556Y0333*
Y0335*
X12566Y0336*
X12586*
X12596Y0335*
Y0334*
X12556*
X12676Y033D02*
Y0336D01*
X12706*
X12716Y0335*
Y0333*
X12706Y0332*
X12676*
X12746D02*
X12766D01*
X12776Y0333*
Y0335*
X12766Y0336*
X12746*
X12736Y0335*
Y0333*
X12746Y0332*
X12796D02*
X12826D01*
X12836Y0333*
X12826Y0334*
X12806*
X12796Y0335*
X12806Y0336*
X12836*
X12856Y0332D02*
X12876D01*
X12866*
Y0336*
X12856*
X12916Y0337D02*
Y0336D01*
X12906*
X12926*
X12916*
Y0333*
X12926Y0332*
X12956D02*
X12976D01*
X12966*
Y0336*
X12956*
X13016Y0332D02*
X13036D01*
X13046Y0333*
Y0335*
X13036Y0336*
X13016*
X13006Y0335*
Y0333*
X13016Y0332*
X13066D02*
Y0336D01*
X13096*
X13106Y0335*
Y0332*
X13126D02*
Y0333D01*
X13136*
Y0332*
X13126*
X08997Y0322D02*
X09037D01*
X08997Y0324D02*
X09037D01*
X09117Y032D02*
Y0326D01*
X09147*
X09157Y0325*
Y0323*
X09147Y0322*
X09117*
X09137D02*
X09157Y032D01*
X09187D02*
X09207D01*
X09217Y0321*
Y0323*
X09207Y0324*
X09187*
X09177Y0323*
Y0321*
X09187Y032*
X09237Y0324D02*
Y0321D01*
X09247Y032*
X09277*
Y0324*
X09307Y0325D02*
Y0324D01*
X09297*
X09317*
X09307*
Y0321*
X09317Y032*
X09407D02*
Y0326D01*
X09437*
X09447Y0325*
Y0323*
X09437Y0322*
X09407*
X09477Y0324D02*
X09497D01*
X09507Y0323*
Y032*
X09477*
X09467Y0321*
X09477Y0322*
X09507*
X09537Y0325D02*
Y0324D01*
X09527*
X09547*
X09537*
Y0321*
X09547Y032*
X09577Y0326D02*
Y032D01*
Y0323*
X09587Y0324*
X09607*
X09617Y0323*
Y032*
X09697Y0326D02*
Y032D01*
X09737*
X09787D02*
X09767D01*
X09757Y0321*
Y0323*
X09767Y0324*
X09787*
X09797Y0323*
Y0322*
X09757*
X09817Y032D02*
Y0324D01*
X09847*
X09857Y0323*
Y032*
X09897Y0318D02*
X09907D01*
X09917Y0319*
Y0324*
X09887*
X09877Y0323*
Y0321*
X09887Y032*
X09917*
X09947Y0325D02*
Y0324D01*
X09937*
X09957*
X09947*
Y0321*
X09957Y032*
X09987Y0326D02*
Y032D01*
Y0323*
X09997Y0324*
X10017*
X10027Y0323*
Y032*
X10107Y0323D02*
X10147D01*
X10127Y0325D02*
Y0321D01*
X10227Y0326D02*
X10267D01*
X10247*
Y032*
X10297D02*
X10317D01*
X10327Y0321*
Y0323*
X10317Y0324*
X10297*
X10287Y0323*
Y0321*
X10297Y032*
X10357D02*
X10377D01*
X10387Y0321*
Y0323*
X10377Y0324*
X10357*
X10347Y0323*
Y0321*
X10357Y032*
X10407D02*
X10427D01*
X10417*
Y0326*
X10407*
X10557Y0325D02*
X10547Y0326D01*
X10527*
X10517Y0325*
Y0324*
X10527Y0323*
X10547*
X10557Y0322*
Y0321*
X10547Y032*
X10527*
X10517Y0321*
X10577Y032D02*
X10597D01*
X10587*
Y0324*
X10577*
X10627D02*
X10667D01*
X10627Y032*
X10667*
X10717D02*
X10697D01*
X10687Y0321*
Y0323*
X10697Y0324*
X10717*
X10727Y0323*
Y0322*
X10687*
X10807D02*
X10847D01*
X10807Y0324D02*
X10847D01*
X10967Y0325D02*
X10957Y0326D01*
X10937*
X10927Y0325*
Y0324*
X10937Y0323*
X10957*
X10967Y0322*
Y0321*
X10957Y032*
X10937*
X10927Y0321*
X10987Y032D02*
X11007D01*
X10997*
Y0326*
X10987*
X11047Y032D02*
X11067D01*
X11077Y0321*
Y0323*
X11067Y0324*
X11047*
X11037Y0323*
Y0321*
X11047Y032*
X11107Y0325D02*
Y0324D01*
X11097*
X11117*
X11107*
Y0321*
X11117Y032*
X11207D02*
X11227D01*
X11217*
Y0326*
X11207*
X11287Y032D02*
X11267D01*
X11257Y0321*
Y0323*
X11267Y0324*
X11287*
X11297Y0323*
Y0322*
X11257*
X11317Y032D02*
Y0324D01*
X11347*
X11357Y0323*
Y032*
X11397Y0318D02*
X11407D01*
X11417Y0319*
Y0324*
X11387*
X11377Y0323*
Y0321*
X11387Y032*
X11417*
X11447Y0325D02*
Y0324D01*
X11437*
X11457*
X11447*
Y0321*
X11457Y032*
X11486Y0326D02*
Y032D01*
Y0323*
X11496Y0324*
X11516*
X11526Y0323*
Y032*
X11616Y0324D02*
X11636D01*
X11646Y0323*
Y032*
X11616*
X11606Y0321*
X11616Y0322*
X11646*
X11666Y032D02*
X11696D01*
X11706Y0321*
X11696Y0322*
X11676*
X11666Y0323*
X11676Y0324*
X11706*
X11826Y0326D02*
Y032D01*
X11796*
X11786Y0321*
Y0323*
X11796Y0324*
X11826*
X11876Y032D02*
X11856D01*
X11846Y0321*
Y0323*
X11856Y0324*
X11876*
X11886Y0323*
Y0322*
X11846*
X11916Y032D02*
Y0325D01*
Y0323*
X11906*
X11926*
X11916*
Y0325*
X11926Y0326*
X11956Y032D02*
X11976D01*
X11966*
Y0324*
X11956*
X12006Y032D02*
Y0324D01*
X12036*
X12046Y0323*
Y032*
X12096D02*
X12076D01*
X12066Y0321*
Y0323*
X12076Y0324*
X12096*
X12106Y0323*
Y0322*
X12066*
X12166Y0326D02*
Y032D01*
X12136*
X12126Y0321*
Y0323*
X12136Y0324*
X12166*
X12246Y032D02*
X12266D01*
X12256*
Y0324*
X12246*
X12296Y032D02*
Y0324D01*
X12326*
X12336Y0323*
Y032*
X12426Y0325D02*
Y0324D01*
X12416*
X12436*
X12426*
Y0321*
X12436Y032*
X12466Y0326D02*
Y032D01*
Y0323*
X12476Y0324*
X12496*
X12506Y0323*
Y032*
X12556D02*
X12536D01*
X12526Y0321*
Y0323*
X12536Y0324*
X12556*
X12566Y0323*
Y0322*
X12526*
X12646Y032D02*
Y0326D01*
X12676*
X12686Y0325*
Y0323*
X12676Y0322*
X12646*
X12746Y0325D02*
X12736Y0326D01*
X12716*
X12706Y0325*
Y0321*
X12716Y032*
X12736*
X12746Y0321*
X12766Y0326D02*
Y032D01*
X12796*
X12806Y0321*
Y0322*
X12796Y0323*
X12766*
X12796*
X12806Y0324*
Y0325*
X12796Y0326*
X12766*
X12886Y032D02*
X12906D01*
X12896*
Y0326*
X12886*
X12946Y0324D02*
X12966D01*
X12976Y0323*
Y032*
X12946*
X12936Y0321*
X12946Y0322*
X12976*
X12996Y0324D02*
Y0321D01*
X13006Y032*
X13036*
Y0319*
X13026Y0318*
X13016*
X13036Y032D02*
Y0324D01*
X13066Y032D02*
X13086D01*
X13096Y0321*
Y0323*
X13086Y0324*
X13066*
X13056Y0323*
Y0321*
X13066Y032*
X13116Y0324D02*
Y0321D01*
X13126Y032*
X13156*
Y0324*
X13186Y0325D02*
Y0324D01*
X13176*
X13196*
X13186*
Y0321*
X13196Y032*
G54D41*
X05005Y0343D02*
Y0347D01*
X05045*
Y0343*
X05005*
X04905D02*
Y0347D01*
X04945*
Y0343*
X04905*
X04805D02*
Y0347D01*
X04845*
Y0343*
X04805*
X04705D02*
Y0347D01*
X04745*
Y0343*
X04705*
X04605D02*
Y0347D01*
X04645*
Y0343*
X04605*
X04505D02*
Y0347D01*
X04545*
Y0343*
X04505*
X04405D02*
Y0347D01*
X04445*
Y0343*
X04405*
X04305D02*
Y0347D01*
X04345*
Y0343*
X04305*
X04205D02*
Y0347D01*
X04245*
Y0343*
X04205*
X04105D02*
Y0347D01*
X04145*
Y0343*
X04105*
X05005Y0313D02*
Y0317D01*
X05045*
Y0313*
X05005*
X04905D02*
Y0317D01*
X04945*
Y0313*
X04905*
X04805D02*
Y0317D01*
X04845*
Y0313*
X04805*
X04705D02*
Y0317D01*
X04745*
Y0313*
X04705*
X04605D02*
Y0317D01*
X04645*
Y0313*
X04605*
X04505D02*
Y0317D01*
X04545*
Y0313*
X04505*
X04405D02*
Y0317D01*
X04445*
Y0313*
X04405*
X04305D02*
Y0317D01*
X04345*
Y0313*
X04305*
X04205D02*
Y0317D01*
X04245*
Y0313*
X04205*
X04105D02*
Y0317D01*
X04145*
Y0313*
X04105*
X06595Y03125D02*
Y03165D01*
X06635*
Y03125*
X06595*
X06495D02*
Y03165D01*
X06535*
Y03125*
X06495*
X06595Y03225D02*
Y03265D01*
X06635*
Y03225*
X06595*
X06495D02*
Y03265D01*
X06535*
Y03225*
X06495*
X06595Y03325D02*
Y03365D01*
X06635*
Y03325*
X06595*
X06495D02*
Y03365D01*
X06535*
Y03325*
X06495*
X06595Y03425D02*
Y03465D01*
X06635*
Y03425*
X06595*
X06495D02*
Y03465D01*
X06535*
Y03425*
X06495*
X0613Y0343D02*
Y0347D01*
X0617*
Y0343*
X0613*
X0603D02*
Y0347D01*
X0607*
Y0343*
X0603*
X0593D02*
Y0347D01*
X0597*
Y0343*
X0593*
X0583D02*
Y0347D01*
X0587*
Y0343*
X0583*
X0573D02*
Y0347D01*
X0577*
Y0343*
X0573*
X0563D02*
Y0347D01*
X0567*
Y0343*
X0563*
X0553D02*
Y0347D01*
X0557*
Y0343*
X0553*
X0543D02*
Y0347D01*
X0547*
Y0343*
X0543*
X0287Y0326D02*
X0285Y033D01*
X0289*
X0287Y0326*
X02285D02*
X02265Y033D01*
X02305*
X02285Y0326*
X0208Y033D02*
Y0334D01*
X0212*
Y033*
X0208*
Y032D02*
Y0324D01*
X0212*
Y032*
X0208*
X05187Y03282D02*
X05197Y03292D01*
X05207*
X05197Y03302*
X05207Y03312*
X05197*
X05187Y03322*
X05177Y03312*
X05167*
X05177Y03302*
X05167Y03292*
X05177*
X05187Y03282*
X05395Y03332D02*
X05405Y03342D01*
X05415*
X05405Y03352*
X05415Y03362*
X05405*
X05395Y03372*
X05385Y03362*
X05375*
X05385Y03352*
X05375Y03342*
X05385*
X05395Y03332*
X06948Y03925D02*
X0696Y03937D01*
X06972*
X0696Y0395*
X06972Y03962*
X0696*
X06948Y03974*
X06936Y03962*
X06924*
X06936Y0395*
X06924Y03937*
X06936*
X06948Y03925*
X06924Y03805D02*
Y03854D01*
X06972*
Y03805*
X06924*
X06948Y03565D02*
X06924Y03614D01*
X06972*
X06948Y03565*
G54D42*
X02755Y0333D02*
D01*
X02754Y03331*
X02754Y03332*
X02754Y03334*
X02754Y03335*
X02753Y03336*
X02753Y03338*
X02752Y03339*
X02751Y0334*
X02751Y03341*
X0275Y03342*
X02749Y03343*
X02748Y03344*
X02747Y03345*
X02746Y03346*
X02745Y03347*
X02743Y03347*
X02742Y03348*
X02741Y03349*
X02739Y03349*
X02738Y03349*
X02737Y03349*
X02735Y03349*
X02734*
X02732Y03349*
X02731Y03349*
X0273Y03349*
X02728Y03349*
X02727Y03348*
X02726Y03347*
X02725Y03347*
X02723Y03346*
X02722Y03345*
X02721Y03344*
X0272Y03343*
X02719Y03342*
X02718Y03341*
X02718Y0334*
X02717Y03339*
X02716Y03338*
X02716Y03336*
X02715Y03335*
X02715Y03334*
X02715Y03332*
X02715Y03331*
X02715Y0333*
X02715Y03328*
X02715Y03327*
X02715Y03325*
X02715Y03324*
X02716Y03323*
X02716Y03321*
X02717Y0332*
X02718Y03319*
X02718Y03318*
X02719Y03317*
X0272Y03316*
X02721Y03315*
X02722Y03314*
X02723Y03313*
X02725Y03312*
X02726Y03312*
X02727Y03311*
X02728Y0331*
X0273Y0331*
X02731Y0331*
X02732Y0331*
X02734Y0331*
X02735*
X02737Y0331*
X02738Y0331*
X02739Y0331*
X02741Y0331*
X02742Y03311*
X02743Y03312*
X02745Y03312*
X02746Y03313*
X02747Y03314*
X02748Y03315*
X02749Y03316*
X0275Y03317*
X02751Y03318*
X02751Y03319*
X02752Y0332*
X02753Y03321*
X02753Y03323*
X02754Y03324*
X02754Y03325*
X02754Y03327*
X02754Y03328*
X02755Y0333*
X02595D02*
D01*
X02594Y03331*
X02594Y03332*
X02594Y03334*
X02594Y03335*
X02593Y03336*
X02593Y03338*
X02592Y03339*
X02591Y0334*
X02591Y03341*
X0259Y03342*
X02589Y03343*
X02588Y03344*
X02587Y03345*
X02586Y03346*
X02585Y03347*
X02583Y03347*
X02582Y03348*
X02581Y03349*
X02579Y03349*
X02578Y03349*
X02577Y03349*
X02575Y03349*
X02574*
X02572Y03349*
X02571Y03349*
X0257Y03349*
X02568Y03349*
X02567Y03348*
X02566Y03347*
X02565Y03347*
X02563Y03346*
X02562Y03345*
X02561Y03344*
X0256Y03343*
X02559Y03342*
X02558Y03341*
X02558Y0334*
X02557Y03339*
X02556Y03338*
X02556Y03336*
X02555Y03335*
X02555Y03334*
X02555Y03332*
X02555Y03331*
X02555Y0333*
X02555Y03328*
X02555Y03327*
X02555Y03325*
X02555Y03324*
X02556Y03323*
X02556Y03321*
X02557Y0332*
X02558Y03319*
X02558Y03318*
X02559Y03317*
X0256Y03316*
X02561Y03315*
X02562Y03314*
X02563Y03313*
X02565Y03312*
X02566Y03312*
X02567Y03311*
X02568Y0331*
X0257Y0331*
X02571Y0331*
X02572Y0331*
X02574Y0331*
X02575*
X02577Y0331*
X02578Y0331*
X02579Y0331*
X02581Y0331*
X02582Y03311*
X02583Y03312*
X02585Y03312*
X02586Y03313*
X02587Y03314*
X02588Y03315*
X02589Y03316*
X0259Y03317*
X02591Y03318*
X02591Y03319*
X02592Y0332*
X02593Y03321*
X02593Y03323*
X02594Y03324*
X02594Y03325*
X02594Y03327*
X02594Y03328*
X02595Y0333*
X02435D02*
D01*
X02434Y03331*
X02434Y03332*
X02434Y03334*
X02434Y03335*
X02433Y03336*
X02433Y03338*
X02432Y03339*
X02431Y0334*
X02431Y03341*
X0243Y03342*
X02429Y03343*
X02428Y03344*
X02427Y03345*
X02426Y03346*
X02425Y03347*
X02423Y03347*
X02422Y03348*
X02421Y03349*
X02419Y03349*
X02418Y03349*
X02417Y03349*
X02415Y03349*
X02414*
X02412Y03349*
X02411Y03349*
X0241Y03349*
X02408Y03349*
X02407Y03348*
X02406Y03347*
X02405Y03347*
X02403Y03346*
X02402Y03345*
X02401Y03344*
X024Y03343*
X02399Y03342*
X02398Y03341*
X02398Y0334*
X02397Y03339*
X02396Y03338*
X02396Y03336*
X02395Y03335*
X02395Y03334*
X02395Y03332*
X02395Y03331*
X02395Y0333*
X02395Y03328*
X02395Y03327*
X02395Y03325*
X02395Y03324*
X02396Y03323*
X02396Y03321*
X02397Y0332*
X02398Y03319*
X02398Y03318*
X02399Y03317*
X024Y03316*
X02401Y03315*
X02402Y03314*
X02403Y03313*
X02405Y03312*
X02406Y03312*
X02407Y03311*
X02408Y0331*
X0241Y0331*
X02411Y0331*
X02412Y0331*
X02414Y0331*
X02415*
X02417Y0331*
X02418Y0331*
X02419Y0331*
X02421Y0331*
X02422Y03311*
X02423Y03312*
X02425Y03312*
X02426Y03313*
X02427Y03314*
X02428Y03315*
X02429Y03316*
X0243Y03317*
X02431Y03318*
X02431Y03319*
X02432Y0332*
X02433Y03321*
X02433Y03323*
X02434Y03324*
X02434Y03325*
X02434Y03327*
X02434Y03328*
X02435Y0333*
Y0323D02*
D01*
X02434Y03231*
X02434Y03232*
X02434Y03234*
X02434Y03235*
X02433Y03236*
X02433Y03238*
X02432Y03239*
X02431Y0324*
X02431Y03241*
X0243Y03242*
X02429Y03243*
X02428Y03244*
X02427Y03245*
X02426Y03246*
X02425Y03247*
X02423Y03247*
X02422Y03248*
X02421Y03249*
X02419Y03249*
X02418Y03249*
X02417Y03249*
X02415Y03249*
X02414*
X02412Y03249*
X02411Y03249*
X0241Y03249*
X02408Y03249*
X02407Y03248*
X02406Y03247*
X02405Y03247*
X02403Y03246*
X02402Y03245*
X02401Y03244*
X024Y03243*
X02399Y03242*
X02398Y03241*
X02398Y0324*
X02397Y03239*
X02396Y03238*
X02396Y03236*
X02395Y03235*
X02395Y03234*
X02395Y03232*
X02395Y03231*
X02395Y0323*
X02395Y03228*
X02395Y03227*
X02395Y03225*
X02395Y03224*
X02396Y03223*
X02396Y03221*
X02397Y0322*
X02398Y03219*
X02398Y03218*
X02399Y03217*
X024Y03216*
X02401Y03215*
X02402Y03214*
X02403Y03213*
X02405Y03212*
X02406Y03212*
X02407Y03211*
X02408Y0321*
X0241Y0321*
X02411Y0321*
X02412Y0321*
X02414Y0321*
X02415*
X02417Y0321*
X02418Y0321*
X02419Y0321*
X02421Y0321*
X02422Y03211*
X02423Y03212*
X02425Y03212*
X02426Y03213*
X02427Y03214*
X02428Y03215*
X02429Y03216*
X0243Y03217*
X02431Y03218*
X02431Y03219*
X02432Y0322*
X02433Y03221*
X02433Y03223*
X02434Y03224*
X02434Y03225*
X02434Y03227*
X02434Y03228*
X02435Y0323*
X02595D02*
D01*
X02594Y03231*
X02594Y03232*
X02594Y03234*
X02594Y03235*
X02593Y03236*
X02593Y03238*
X02592Y03239*
X02591Y0324*
X02591Y03241*
X0259Y03242*
X02589Y03243*
X02588Y03244*
X02587Y03245*
X02586Y03246*
X02585Y03247*
X02583Y03247*
X02582Y03248*
X02581Y03249*
X02579Y03249*
X02578Y03249*
X02577Y03249*
X02575Y03249*
X02574*
X02572Y03249*
X02571Y03249*
X0257Y03249*
X02568Y03249*
X02567Y03248*
X02566Y03247*
X02565Y03247*
X02563Y03246*
X02562Y03245*
X02561Y03244*
X0256Y03243*
X02559Y03242*
X02558Y03241*
X02558Y0324*
X02557Y03239*
X02556Y03238*
X02556Y03236*
X02555Y03235*
X02555Y03234*
X02555Y03232*
X02555Y03231*
X02555Y0323*
X02555Y03228*
X02555Y03227*
X02555Y03225*
X02555Y03224*
X02556Y03223*
X02556Y03221*
X02557Y0322*
X02558Y03219*
X02558Y03218*
X02559Y03217*
X0256Y03216*
X02561Y03215*
X02562Y03214*
X02563Y03213*
X02565Y03212*
X02566Y03212*
X02567Y03211*
X02568Y0321*
X0257Y0321*
X02571Y0321*
X02572Y0321*
X02574Y0321*
X02575*
X02577Y0321*
X02578Y0321*
X02579Y0321*
X02581Y0321*
X02582Y03211*
X02583Y03212*
X02585Y03212*
X02586Y03213*
X02587Y03214*
X02588Y03215*
X02589Y03216*
X0259Y03217*
X02591Y03218*
X02591Y03219*
X02592Y0322*
X02593Y03221*
X02593Y03223*
X02594Y03224*
X02594Y03225*
X02594Y03227*
X02594Y03228*
X02595Y0323*
X02755D02*
D01*
X02754Y03231*
X02754Y03232*
X02754Y03234*
X02754Y03235*
X02753Y03236*
X02753Y03238*
X02752Y03239*
X02751Y0324*
X02751Y03241*
X0275Y03242*
X02749Y03243*
X02748Y03244*
X02747Y03245*
X02746Y03246*
X02745Y03247*
X02743Y03247*
X02742Y03248*
X02741Y03249*
X02739Y03249*
X02738Y03249*
X02737Y03249*
X02735Y03249*
X02734*
X02732Y03249*
X02731Y03249*
X0273Y03249*
X02728Y03249*
X02727Y03248*
X02726Y03247*
X02725Y03247*
X02723Y03246*
X02722Y03245*
X02721Y03244*
X0272Y03243*
X02719Y03242*
X02718Y03241*
X02718Y0324*
X02717Y03239*
X02716Y03238*
X02716Y03236*
X02715Y03235*
X02715Y03234*
X02715Y03232*
X02715Y03231*
X02715Y0323*
X02715Y03228*
X02715Y03227*
X02715Y03225*
X02715Y03224*
X02716Y03223*
X02716Y03221*
X02717Y0322*
X02718Y03219*
X02718Y03218*
X02719Y03217*
X0272Y03216*
X02721Y03215*
X02722Y03214*
X02723Y03213*
X02725Y03212*
X02726Y03212*
X02727Y03211*
X02728Y0321*
X0273Y0321*
X02731Y0321*
X02732Y0321*
X02734Y0321*
X02735*
X02737Y0321*
X02738Y0321*
X02739Y0321*
X02741Y0321*
X02742Y03211*
X02743Y03212*
X02745Y03212*
X02746Y03213*
X02747Y03214*
X02748Y03215*
X02749Y03216*
X0275Y03217*
X02751Y03218*
X02751Y03219*
X02752Y0322*
X02753Y03221*
X02753Y03223*
X02754Y03224*
X02754Y03225*
X02754Y03227*
X02754Y03228*
X02755Y0323*
G54D43*
X06972Y04123D02*
X0696Y04135D01*
X06936*
X06924Y04123*
Y04111*
X06936Y041*
X0696*
X06972Y04087*
Y04075*
X0696Y04064*
X06936*
X06924Y04075*
X06996Y04111D02*
Y04075D01*
X07008Y04064*
X07044*
Y04052*
X07032Y0404*
X0702*
X07044Y04064D02*
Y04111D01*
X07068Y04064D02*
Y04111D01*
X0708*
X07092Y041*
Y04064*
Y041*
X07104Y04111*
X07116Y041*
Y04064*
X0714Y04135D02*
Y04064D01*
X07176*
X07188Y04075*
Y04087*
Y041*
X07176Y04111*
X0714*
X07224Y04064D02*
X07248D01*
X0726Y04075*
Y041*
X07248Y04111*
X07224*
X07212Y041*
Y04075*
X07224Y04064*
X07284D02*
X07308D01*
X07296*
Y04135*
X07284*
X07428D02*
Y04064D01*
Y041*
X07476*
Y04135*
Y04064*
X075D02*
X07524D01*
X07512*
Y04111*
X075*
X07572Y04123D02*
Y04111D01*
X0756*
X07584*
X07572*
Y04075*
X07584Y04064*
X0774Y04123D02*
X07728Y04135D01*
X07704*
X07692Y04123*
Y04075*
X07704Y04064*
X07728*
X0774Y04075*
X07776Y04064D02*
X078D01*
X07812Y04075*
Y041*
X078Y04111*
X07776*
X07764Y041*
Y04075*
X07776Y04064*
X07836Y04111D02*
Y04075D01*
X07848Y04064*
X07884*
Y04111*
X07908Y04064D02*
Y04111D01*
X07944*
X07956Y041*
Y04064*
X07992Y04123D02*
Y04111D01*
X0798*
X08004*
X07992*
Y04075*
X08004Y04064*
X08172Y04135D02*
X08124D01*
Y041*
X08148*
X08124*
Y04064*
X08196D02*
X0822D01*
X08208*
Y04111*
X08196*
X08256Y04064D02*
Y04111D01*
X08292*
X08304Y041*
Y04064*
X08328D02*
X08352D01*
X0834*
Y04111*
X08328*
X08388Y04064D02*
X08424D01*
X08435Y04075*
X08424Y04087*
X084*
X08388Y041*
X084Y04111*
X08435*
X0846Y04135D02*
Y04064D01*
Y041*
X08471Y04111*
X08495*
X08507Y041*
Y04064*
X08567D02*
X08543D01*
X08531Y04075*
Y041*
X08543Y04111*
X08567*
X08579Y041*
Y04087*
X08531*
X08651Y04135D02*
Y04064D01*
X08615*
X08603Y04075*
Y041*
X08615Y04111*
X08651*
X08747Y04135D02*
Y04064D01*
Y041*
X08795*
Y04135*
Y04064*
X08831D02*
X08855D01*
X08867Y04075*
Y041*
X08855Y04111*
X08831*
X08819Y041*
Y04075*
X08831Y04064*
X08891D02*
X08915D01*
X08903*
Y04135*
X08891*
X08987Y04064D02*
X08963D01*
X08951Y04075*
Y041*
X08963Y04111*
X08987*
X08999Y041*
Y04087*
X08951*
X09143Y04123D02*
X09131Y04135D01*
X09107*
X09095Y04123*
Y04111*
X09107Y041*
X09131*
X09143Y04087*
Y04075*
X09131Y04064*
X09107*
X09095Y04075*
X09167Y04064D02*
X09191D01*
X09179*
Y04111*
X09167*
X09227D02*
X09275D01*
X09227Y04064*
X09275*
X09335D02*
X09311D01*
X09299Y04075*
Y041*
X09311Y04111*
X09335*
X09347Y041*
Y04087*
X09299*
X09467Y04064D02*
Y04135D01*
X09503*
X09515Y04123*
Y041*
X09503Y04087*
X09467*
X09539Y04135D02*
Y04064D01*
Y041*
X09551Y04111*
X09575*
X09587Y041*
Y04064*
X09611Y04111D02*
Y04075D01*
X09623Y04064*
X09659*
Y04052*
X09647Y0404*
X09635*
X09659Y04064D02*
Y04111D01*
X09683Y04064D02*
X09719D01*
X09731Y04075*
X09719Y04087*
X09695*
X09683Y041*
X09695Y04111*
X09731*
X09755Y04064D02*
X09779D01*
X09767*
Y04111*
X09755*
X09863D02*
X09827D01*
X09815Y041*
Y04075*
X09827Y04064*
X09863*
X09899Y04111D02*
X09923D01*
X09935Y041*
Y04064*
X09899*
X09887Y04075*
X09899Y04087*
X09935*
X09959Y04064D02*
X09983D01*
X09971*
Y04135*
X09959*
X10091D02*
Y04064D01*
X10139*
X10199D02*
X10175D01*
X10163Y04075*
Y041*
X10175Y04111*
X10199*
X10211Y041*
Y04087*
X10163*
X10235Y04064D02*
Y04111D01*
X10271*
X10283Y041*
Y04064*
X10331Y0404D02*
X10343D01*
X10355Y04052*
Y04111*
X10319*
X10307Y041*
Y04075*
X10319Y04064*
X10355*
X10391Y04123D02*
Y04111D01*
X10379*
X10403*
X10391*
Y04075*
X10403Y04064*
X10439Y04135D02*
Y04064D01*
Y041*
X10451Y04111*
X10475*
X10487Y041*
Y04064*
X10607D02*
Y04135D01*
X10643*
X10655Y04123*
Y041*
X10643Y04087*
X10607*
X10631D02*
X10655Y04064D01*
X10691D02*
X10715D01*
X10727Y04075*
Y041*
X10715Y04111*
X10691*
X10679Y041*
Y04075*
X10691Y04064*
X10751Y04111D02*
Y04075D01*
X10763Y04064*
X10799*
Y04111*
X10835Y04123D02*
Y04111D01*
X10823*
X10847*
X10835*
Y04075*
X10847Y04064*
X10955D02*
Y04135D01*
X10991*
X11003Y04123*
Y041*
X10991Y04087*
X10955*
X11039Y04111D02*
X11063D01*
X11075Y041*
Y04064*
X11039*
X11027Y04075*
X11039Y04087*
X11075*
X11111Y04123D02*
Y04111D01*
X11099*
X11123*
X11111*
Y04075*
X11123Y04064*
X11159Y04135D02*
Y04064D01*
Y041*
X11171Y04111*
X11195*
X11207Y041*
Y04064*
X11303Y04135D02*
Y04064D01*
X11351*
X11411D02*
X11387D01*
X11375Y04075*
Y041*
X11387Y04111*
X11411*
X11423Y041*
Y04087*
X11375*
X11447Y04064D02*
Y04111D01*
X11483*
X11495Y041*
Y04064*
X11543Y0404D02*
X11555D01*
X11567Y04052*
Y04111*
X11531*
X11519Y041*
Y04075*
X11531Y04064*
X11567*
X11603Y04123D02*
Y04111D01*
X11591*
X11615*
X11603*
Y04075*
X11615Y04064*
X11651Y04135D02*
Y04064D01*
Y041*
X11663Y04111*
X11687*
X11699Y041*
Y04064*
X11819D02*
Y04135D01*
X11855*
X11867Y04123*
Y041*
X11855Y04087*
X11819*
X1189Y04064D02*
X11915D01*
X11902*
Y04135*
X1189*
X11962Y04111D02*
X11986D01*
X11998Y041*
Y04064*
X11962*
X1195Y04075*
X11962Y04087*
X11998*
X12034Y04123D02*
Y04111D01*
X12022*
X12046*
X12034*
Y04075*
X12046Y04064*
X12118D02*
X12094D01*
X12082Y04075*
Y041*
X12094Y04111*
X12118*
X1213Y041*
Y04087*
X12082*
X12202Y04135D02*
Y04064D01*
X12166*
X12154Y04075*
Y041*
X12166Y04111*
X12202*
X12322Y04135D02*
Y04064D01*
Y041*
X1237*
Y04135*
Y04064*
X12406D02*
X1243D01*
X12442Y04075*
Y041*
X1243Y04111*
X12406*
X12394Y041*
Y04075*
X12406Y04064*
X12466D02*
X1249D01*
X12478*
Y04135*
X12466*
X12562Y04064D02*
X12538D01*
X12526Y04075*
Y041*
X12538Y04111*
X12562*
X12574Y041*
Y04087*
X12526*
X1267Y04135D02*
X12718D01*
X12694*
Y04064*
X12742Y04111D02*
Y04075D01*
X12754Y04064*
X1279*
Y04052*
X12778Y0404*
X12766*
X1279Y04064D02*
Y04111D01*
X12814Y0404D02*
Y04111D01*
X1285*
X12862Y041*
Y04075*
X1285Y04064*
X12814*
X12922D02*
X12898D01*
X12886Y04075*
Y041*
X12898Y04111*
X12922*
X12934Y041*
Y04087*
X12886*
X06836Y04172D02*
X13054D01*
X06836Y0401D02*
X13054D01*
X06836Y04172D02*
Y0341D01*
X13054Y04172D02*
Y0341D01*
X07384Y04172D02*
Y0341D01*
X0808Y04172D02*
Y0341D01*
X09423Y04172D02*
Y0341D01*
X10563Y04172D02*
Y0341D01*
X11775Y04172D02*
Y0341D01*
X12278Y04172D02*
Y0341D01*
X06836Y0353D02*
X13054D01*
X06836Y0341D02*
X13054D01*
G54D44*
X06972Y0371D02*
D01*
X06972Y03711*
X06972Y03713*
X06971Y03714*
X06971Y03716*
X0697Y03718*
X0697Y03719*
X06969Y03721*
X06968Y03722*
X06967Y03724*
X06966Y03725*
X06965Y03726*
X06964Y03727*
X06963Y03728*
X06961Y03729*
X0696Y0373*
X06958Y03731*
X06957Y03732*
X06955Y03732*
X06954Y03733*
X06952Y03733*
X0695Y03733*
X06949Y03734*
X06947*
X06945Y03733*
X06944Y03733*
X06942Y03733*
X0694Y03732*
X06939Y03732*
X06937Y03731*
X06936Y0373*
X06934Y03729*
X06933Y03728*
X06932Y03727*
X06931Y03726*
X06929Y03725*
X06928Y03724*
X06928Y03722*
X06927Y03721*
X06926Y03719*
X06925Y03718*
X06925Y03716*
X06924Y03714*
X06924Y03713*
X06924Y03711*
X06924Y0371*
X06924Y03708*
X06924Y03706*
X06924Y03705*
X06925Y03703*
X06925Y03701*
X06926Y037*
X06927Y03698*
X06928Y03697*
X06928Y03695*
X06929Y03694*
X06931Y03693*
X06932Y03692*
X06933Y03691*
X06934Y0369*
X06936Y03689*
X06937Y03688*
X06939Y03687*
X0694Y03687*
X06942Y03686*
X06944Y03686*
X06945Y03686*
X06947Y03685*
X06949*
X0695Y03686*
X06952Y03686*
X06954Y03686*
X06955Y03687*
X06957Y03687*
X06958Y03688*
X0696Y03689*
X06961Y0369*
X06963Y03691*
X06964Y03692*
X06965Y03693*
X06966Y03694*
X06967Y03695*
X06968Y03697*
X06969Y03698*
X0697Y037*
X0697Y03701*
X06971Y03703*
X06971Y03705*
X06972Y03706*
X06972Y03708*
X06972Y0371*
G54D45*
X06964Y0337D02*
X06954Y0338D01*
X06934*
X06924Y0337*
Y0336*
X06934Y0335*
X06954*
X06964Y0334*
Y0333*
X06954Y0332*
X06934*
X06924Y0333*
X06984Y0332D02*
X07004D01*
X06994*
Y0338*
X06984*
X07044Y0332D02*
X07064D01*
X07074Y0333*
Y0335*
X07064Y0336*
X07044*
X07034Y0335*
Y0333*
X07044Y0332*
X07104Y0337D02*
Y0336D01*
X07094*
X07114*
X07104*
Y0333*
X07114Y0332*
X07244Y0338D02*
Y0332D01*
X07214*
X07204Y0333*
Y0335*
X07214Y0336*
X07244*
X07294Y0332D02*
X07274D01*
X07264Y0333*
Y0335*
X07274Y0336*
X07294*
X07304Y0335*
Y0334*
X07264*
X07334Y0332D02*
Y0337D01*
Y0335*
X07324*
X07344*
X07334*
Y0337*
X07344Y0338*
X07374Y0332D02*
X07394D01*
X07384*
Y0336*
X07374*
X07424Y0332D02*
Y0336D01*
X07454*
X07464Y0335*
Y0332*
X07484D02*
X07504D01*
X07494*
Y0336*
X07484*
X07544Y0337D02*
Y0336D01*
X07534*
X07554*
X07544*
Y0333*
X07554Y0332*
X07584D02*
X07604D01*
X07594*
Y0336*
X07584*
X07644Y0332D02*
X07664D01*
X07674Y0333*
Y0335*
X07664Y0336*
X07644*
X07634Y0335*
Y0333*
X07644Y0332*
X07694D02*
Y0336D01*
X07724*
X07734Y0335*
Y0332*
X07754D02*
X07784D01*
X07794Y0333*
X07784Y0334*
X07764*
X07754Y0335*
X07764Y0336*
X07794*
X07874D02*
X07884D01*
Y0335*
X07874*
Y0336*
Y0333D02*
X07884D01*
Y0332*
X07874*
Y0333*
X08Y0332D02*
Y0338D01*
X0803*
X0804Y0337*
Y0335*
X0803Y0334*
X08*
X0802D02*
X0804Y0332D01*
X0807D02*
X0809D01*
X081Y0333*
Y0335*
X0809Y0336*
X0807*
X0806Y0335*
Y0333*
X0807Y0332*
X0812Y0336D02*
Y0333D01*
X0813Y0332*
X0816*
Y0336*
X0819Y0337D02*
Y0336D01*
X0818*
X082*
X0819*
Y0333*
X082Y0332*
X0829D02*
Y0338D01*
X0832*
X0833Y0337*
Y0335*
X0832Y0334*
X0829*
X0836Y0336D02*
X08379D01*
X08389Y0335*
Y0332*
X0836*
X0835Y0333*
X0836Y0334*
X08389*
X08419Y0337D02*
Y0336D01*
X08409*
X08429*
X08419*
Y0333*
X08429Y0332*
X08459Y0338D02*
Y0332D01*
Y0335*
X08469Y0336*
X08489*
X08499Y0335*
Y0332*
X08579Y0338D02*
Y0332D01*
X08619*
X08669D02*
X08649D01*
X08639Y0333*
Y0335*
X08649Y0336*
X08669*
X08679Y0335*
Y0334*
X08639*
X08699Y0332D02*
Y0336D01*
X08729*
X08739Y0335*
Y0332*
X08779Y033D02*
X08789D01*
X08799Y0331*
Y0336*
X08769*
X08759Y0335*
Y0333*
X08769Y0332*
X08799*
X08829Y0337D02*
Y0336D01*
X08819*
X08839*
X08829*
Y0333*
X08839Y0332*
X08869Y0338D02*
Y0332D01*
Y0335*
X08879Y0336*
X08899*
X08909Y0335*
Y0332*
X08Y032D02*
Y0326D01*
X0803*
X0804Y0325*
Y0323*
X0803Y0322*
X08*
X0806Y0326D02*
Y032D01*
Y0323*
X0807Y0324*
X0809*
X081Y0323*
Y032*
X0812Y0324D02*
Y0321D01*
X0813Y032*
X0816*
Y0319*
X0815Y0318*
X0814*
X0816Y032D02*
Y0324D01*
X0818Y032D02*
X0821D01*
X0822Y0321*
X0821Y0322*
X0819*
X0818Y0323*
X0819Y0324*
X0822*
X0824Y032D02*
X0826D01*
X0825*
Y0324*
X0824*
X0833D02*
X083D01*
X0829Y0323*
Y0321*
X083Y032*
X0833*
X0836Y0324D02*
X08379D01*
X08389Y0323*
Y032*
X0836*
X0835Y0321*
X0836Y0322*
X08389*
X08409Y032D02*
X08429D01*
X08419*
Y0326*
X08409*
X08519D02*
Y032D01*
X08559*
X08609D02*
X08589D01*
X08579Y0321*
Y0323*
X08589Y0324*
X08609*
X08619Y0323*
Y0322*
X08579*
X08639Y032D02*
Y0324D01*
X08669*
X08679Y0323*
Y032*
X08719Y0318D02*
X08729D01*
X08739Y0319*
Y0324*
X08709*
X08699Y0323*
Y0321*
X08709Y032*
X08739*
X08769Y0325D02*
Y0324D01*
X08759*
X08779*
X08769*
Y0321*
X08779Y032*
X08809Y0326D02*
Y032D01*
Y0323*
X08819Y0324*
X08839*
X08849Y0323*
Y032*
M02*