%FSTAX23Y23*%
%MOIN*%
%SFA1B1*%

%IPPOS*%
%ADD25C,0.005984*%
%ADD26C,0.010000*%
%ADD38C,0.000000*%
%LNairdrums3-1*%
%LPD*%
G54D25*
X04056Y02694D02*
X04076D01*
X04066*
Y02753*
X04056Y02743*
X04106Y02694D02*
X04126D01*
X04116*
Y02753*
X04106Y02743*
X04156Y02753D02*
X04196D01*
Y02743*
X04156Y02704*
Y02694*
X04216D02*
Y02704D01*
X04226*
Y02694*
X04216*
X04296D02*
Y02753D01*
X04266Y02724*
X04306*
X04326Y02743D02*
X04336Y02753D01*
X04356*
X04366Y02743*
Y02704*
X04356Y02694*
X04336*
X04326Y02704*
Y02743*
X04466Y02694D02*
X04446Y02714D01*
Y02734*
X04466Y02753*
X04496Y02694D02*
Y02734D01*
X04506*
X04516Y02724*
Y02694*
Y02724*
X04526Y02734*
X04536Y02724*
Y02694*
X04556D02*
Y02734D01*
X04566*
X04576Y02724*
Y02694*
Y02724*
X04586Y02734*
X04596Y02724*
Y02694*
X04616D02*
X04636Y02714D01*
Y02734*
X04616Y02753*
X01528Y02999D02*
Y03019D01*
Y03009*
X01468*
X01478Y02999*
X01528Y03049D02*
Y03069D01*
Y03059*
X01468*
X01478Y03049*
X01528Y03099D02*
X01518D01*
Y03109*
X01528*
Y03099*
Y03179D02*
X01468D01*
X01498Y03149*
Y03189*
X01478Y03209D02*
X01468Y03219D01*
Y03239*
X01478Y03249*
X01518*
X01528Y03239*
Y03219*
X01518Y03209*
X01478*
X01528Y03349D02*
X01508Y03329D01*
X01488*
X01468Y03349*
X01528Y03379D02*
X01488D01*
Y03389*
X01498Y03399*
X01528*
X01498*
X01488Y03409*
X01498Y03419*
X01528*
Y03439D02*
X01488D01*
Y03449*
X01498Y03459*
X01528*
X01498*
X01488Y03469*
X01498Y03479*
X01528*
Y03499D02*
X01508Y03519D01*
X01488*
X01468Y03499*
G54D26*
X06673Y0272D02*
Y03035D01*
X02051Y0272D02*
Y03035D01*
X04652Y0273D02*
X06673D01*
X02051D02*
X0404D01*
X06613Y0275D02*
X06673Y0273D01*
X06613Y0271D02*
X06673Y0273D01*
X02051D02*
X02111Y0271D01*
X02051Y0273D02*
X02111Y0275D01*
X0159Y035D02*
X02035D01*
X0159Y03051D02*
X02035D01*
X016Y02951D02*
Y03051D01*
Y035D02*
Y036D01*
X0158Y02991D02*
X016Y03051D01*
X0162Y02991*
X016Y035D02*
X0162Y0356D01*
X0158D02*
X016Y035D01*
G54D38*
X03077Y03147D02*
X03322D01*
X03077D02*
Y03412D01*
X03322*
Y03147D02*
Y03412D01*
Y03296D02*
X03359D01*
Y03263D02*
Y03296D01*
X03322Y03263D02*
X03359D01*
X03322Y03386D02*
X03465D01*
Y03353D02*
Y03386D01*
X03322Y03353D02*
X03465D01*
X03322D02*
Y03386D01*
Y03206D02*
X03465D01*
Y03173D02*
Y03206D01*
X03322Y03173D02*
X03465D01*
X03322D02*
Y03206D01*
M02*