%FSTAX23Y23*%
%MOIN*%
%SFA1B1*%

%IPPOS*%
%ADD27R,0.141850X0.094606*%
%ADD28R,0.055984X0.042992*%
%ADD29R,0.264015X0.272992*%
%ADD30R,0.059173X0.067047*%
%ADD31R,0.067047X0.059173*%
%ADD32C,0.067047*%
%ADD33R,0.067047X0.067047*%
%ADD34R,0.067047X0.067047*%
%ADD35C,0.086732*%
%ADD36O,0.067992X0.135551*%
%ADD37C,0.070984*%
%LNairdrums3-1*%
%LPD*%
G54D27*
X0364Y03381D03*
Y03188D03*
G54D28*
X03455Y03369D03*
Y0319D03*
G54D29*
X03194Y0328D03*
G54D30*
X0386Y03435D03*
X03929D03*
X0633Y0345D03*
X06399D03*
X03855Y0317D03*
X03924D03*
G54D31*
X05255Y0338D03*
Y03449D03*
G54D32*
X05025Y0345D03*
X04925D03*
X04825D03*
X04725D03*
X04625D03*
X04525D03*
X04425D03*
X04325D03*
X04225D03*
X04125D03*
X05025Y0315D03*
X04925D03*
X04825D03*
X04725D03*
X04625D03*
X04525D03*
X04425D03*
X04325D03*
X04225D03*
X06615Y03145D03*
X06515D03*
X06615Y03245D03*
X06515D03*
X06615Y03345D03*
X06515D03*
X06615Y03445D03*
X0605Y0345D03*
X0595D03*
X0585D03*
X0575D03*
X0565D03*
X0555D03*
X0545D03*
X021Y0322D03*
G54D33*
X04125Y0315D03*
X06515Y03445D03*
X021Y0332D03*
G54D34*
X0615Y0345D03*
G54D35*
X02735Y0333D03*
X02575D03*
X02415D03*
Y0323D03*
X02575D03*
X02735D03*
G54D36*
X0287Y0328D03*
X02285D03*
G54D37*
X05187Y03302D03*
X05395Y03352D03*
M02*