%FSTAX23Y23*%
%MOIN*%
%SFA1B1*%

%IPPOS*%
%ADD39C,0.003937*%
%LNairdrums3-1*%
%LPD*%
G54D39*
X041Y03205D02*
D01*
X041Y03206*
X041Y03208*
X041Y03209*
X04099Y0321*
X04099Y03212*
X04098Y03213*
X04098Y03214*
X04097Y03215*
X04096Y03217*
X04095Y03218*
X04095Y03219*
X04094Y0322*
X04093Y03221*
X04091Y03221*
X0409Y03222*
X04089Y03223*
X04088Y03223*
X04086Y03224*
X04085Y03224*
X04084Y03224*
X04082Y03225*
X04081Y03225*
X0408*
X04078Y03225*
X04077Y03224*
X04076Y03224*
X04074Y03224*
X04073Y03223*
X04072Y03223*
X04071Y03222*
X04069Y03221*
X04068Y03221*
X04067Y0322*
X04066Y03219*
X04065Y03218*
X04064Y03217*
X04064Y03215*
X04063Y03214*
X04062Y03213*
X04062Y03212*
X04061Y0321*
X04061Y03209*
X04061Y03208*
X04061Y03206*
X04061Y03205*
X04061Y03204*
X04061Y03202*
X04061Y03201*
X04061Y032*
X04062Y03198*
X04062Y03197*
X04063Y03196*
X04064Y03195*
X04064Y03193*
X04065Y03192*
X04066Y03191*
X04067Y0319*
X04068Y03189*
X04069Y03189*
X04071Y03188*
X04072Y03187*
X04073Y03187*
X04074Y03186*
X04076Y03186*
X04077Y03186*
X04078Y03185*
X0408Y03185*
X04081*
X04082Y03185*
X04084Y03186*
X04085Y03186*
X04086Y03186*
X04088Y03187*
X04089Y03187*
X0409Y03188*
X04091Y03189*
X04093Y03189*
X04094Y0319*
X04095Y03191*
X04095Y03192*
X04096Y03193*
X04097Y03195*
X04098Y03196*
X04098Y03197*
X04099Y03198*
X04099Y032*
X041Y03201*
X041Y03202*
X041Y03204*
X041Y03205*
X03573Y03407D02*
X03706D01*
X03573Y03162D02*
X03706D01*
Y03407*
X03573Y03162D02*
Y03407D01*
X03851Y03463D02*
X03938D01*
X03851Y03406D02*
X03938D01*
X03851D02*
Y03463D01*
X03938Y03406D02*
Y03463D01*
X05104Y0317D02*
Y03429D01*
X04045Y0317D02*
Y03429D01*
X05104*
X04045Y0317D02*
X05104D01*
X06321Y03478D02*
X06408D01*
X06321Y03421D02*
X06408D01*
X06321D02*
Y03478D01*
X06408Y03421D02*
Y03478D01*
X05226Y03371D02*
Y03458D01*
X05283Y03371D02*
Y03458D01*
X05226Y03371D02*
X05283D01*
X05226Y03458D02*
X05283D01*
X03846Y03198D02*
X03933D01*
X03846Y03141D02*
X03933D01*
X03846D02*
Y03198D01*
X03933Y03141D02*
Y03198D01*
M02*