%FSAX43Y43*%
%MOMM*%
G71*
G01*
G75*
G04 Layer_Color=32768*
%ADD10R,3.400X2.200*%
%ADD11R,1.219X0.889*%
%ADD12R,6.502X6.731*%
%ADD13R,1.300X1.500*%
%ADD14R,1.500X1.300*%
%ADD15C,0.300*%
%ADD16C,1.500*%
%ADD17R,1.500X1.500*%
%ADD18R,1.500X1.500*%
%ADD19C,2.000*%
%ADD20O,1.524X3.240*%
%ADD21C,1.600*%
%ADD22C,0.600*%
%ADD23C,0.250*%
%ADD24C,0.200*%
%ADD25C,0.152*%
%ADD26C,0.254*%
%ADD27R,3.603X2.403*%
%ADD28R,1.422X1.092*%
%ADD29R,6.706X6.934*%
%ADD30R,1.503X1.703*%
%ADD31R,1.703X1.503*%
%ADD32C,1.703*%
%ADD33R,1.703X1.703*%
%ADD34R,1.703X1.703*%
%ADD35C,2.203*%
%ADD36O,1.727X3.443*%
%ADD37C,1.803*%
%ADD38C,0.000*%
%ADD39C,0.100*%
%ADD40C,0.050*%
D39*
X0092456Y0082939D02*
Y0083939D01*
X0091956Y0083439D02*
X0092956D01*
X0098933Y0086749D02*
Y0087749D01*
X0098433Y0087249D02*
X0099433D01*
X0115705Y0083820D02*
X0116705D01*
X0116205Y0083320D02*
Y0084320D01*
X0161671Y0087130D02*
Y0088130D01*
X0161171Y0087630D02*
X0162171D01*
X0132977Y0086741D02*
X0133977D01*
X0133477Y0086241D02*
Y0087241D01*
X0098806Y0080018D02*
Y0081018D01*
X0098306Y0080518D02*
X0099306D01*
D40*
X0090506Y0087239D02*
X0094406D01*
X0090506Y0079639D02*
X0094406D01*
Y0087239D01*
X0090506Y0079639D02*
Y0087239D01*
X0097133Y0088249D02*
X0100733D01*
X0097133Y0086249D02*
X0100733D01*
X0097133D02*
Y0088249D01*
X0100733Y0086249D02*
Y0088249D01*
X0129955Y0078970D02*
Y0088670D01*
X0102455Y0078970D02*
Y0088670D01*
X0129955D01*
X0102455Y0078970D02*
X0129955D01*
X0159871Y0088630D02*
X0163471D01*
X0159871Y0086630D02*
X0163471D01*
X0159871D02*
Y0088630D01*
X0163471Y0086630D02*
Y0088630D01*
X0132477Y0084941D02*
Y0088541D01*
X0134477Y0084941D02*
Y0088541D01*
X0132477Y0084941D02*
X0134477D01*
X0132477Y0088541D02*
X0134477D01*
X0097006Y0081518D02*
X0100606D01*
X0097006Y0079518D02*
X0100606D01*
X0097006D02*
Y0081518D01*
X0100606Y0079518D02*
Y0081518D01*
M02*
