M48
;Layer_Color=9474304
;FILE_FORMAT=4:3
METRIC
;TYPE=PLATED
T2F00S00C0.800
T3F00S00C0.900
T4F00S00C1.200
%
T02
X0131775Y0083896
X0137058Y0085141
T03
X0053340Y0081788
Y0084328
X0104775Y0087630
X0107315
X0109855
X0112395
X0114935
X0117475
Y0080010
X0114935
X0112395
X0109855
X0107315
X0104775
X0120015
X0122555
X0125095
X0127635
Y0087630
X0125095
X0122555
X0120015
X0138430
X0140970
X0143510
X0146050
X0148590
X0151130
X0153670
X0156210
X0165481Y0087503
Y0084963
Y0082423
Y0079883
X0168021
Y0082423
Y0084963
Y0087503
T04
X0061341Y0082042
Y0084582
X0065405
Y0082042
X0069469
Y0084582
M30
