%FSAX43Y43*%
%MOMM*%
G71*
G01*
G75*
G04 Layer_Color=16711935*
%ADD10R,3.400X2.200*%
%ADD11R,1.219X0.889*%
%ADD12R,6.502X6.731*%
%ADD13R,1.300X1.500*%
%ADD14R,1.500X1.300*%
%ADD15C,0.300*%
%ADD16C,1.500*%
%ADD17R,1.500X1.500*%
%ADD18R,1.500X1.500*%
%ADD19C,2.000*%
%ADD20O,1.524X3.240*%
%ADD21C,1.600*%
%ADD22C,0.600*%
%ADD23C,0.250*%
%ADD24C,0.200*%
%ADD25C,0.152*%
%ADD26C,0.254*%
%ADD27R,3.603X2.403*%
%ADD28R,1.422X1.092*%
%ADD29R,6.706X6.934*%
%ADD30R,1.503X1.703*%
%ADD31R,1.703X1.503*%
%ADD32C,1.703*%
%ADD33R,1.703X1.703*%
%ADD34R,1.703X1.703*%
%ADD35C,2.203*%
%ADD36O,1.727X3.443*%
%ADD37C,1.803*%
%ADD38C,0.000*%
%ADD39C,0.100*%
D39*
X0104155Y0081420D02*
G03*
X0104155Y0081420I-0000500J0000000D01*
G01*
X0090756Y0086539D02*
X0094156D01*
X0090756Y0080339D02*
X0094156D01*
Y0086539D01*
X0090756Y0080339D02*
Y0086539D01*
X0097828Y0087974D02*
X0100038D01*
X0097828Y0086524D02*
X0100038D01*
X0097828D02*
Y0087974D01*
X0100038Y0086524D02*
Y0087974D01*
X0129655Y0080520D02*
Y0087120D01*
X0102755Y0080520D02*
Y0087120D01*
X0129655D01*
X0102755Y0080520D02*
X0129655D01*
X0160566Y0088355D02*
X0162776D01*
X0160566Y0086905D02*
X0162776D01*
X0160566D02*
Y0088355D01*
X0162776Y0086905D02*
Y0088355D01*
X0132752Y0085636D02*
Y0087846D01*
X0134202Y0085636D02*
Y0087846D01*
X0132752Y0085636D02*
X0134202D01*
X0132752Y0087846D02*
X0134202D01*
X0097701Y0081243D02*
X0099911D01*
X0097701Y0079793D02*
X0099911D01*
X0097701D02*
Y0081243D01*
X0099911Y0079793D02*
Y0081243D01*
M02*
