%FSAX43Y43*%
%MOMM*%
G71*
G01*
G75*
G04 Layer_Color=255*
%ADD10R,3.400X2.200*%
%ADD11R,1.219X0.889*%
%ADD12R,6.502X6.731*%
%ADD13R,1.300X1.500*%
%ADD14R,1.500X1.300*%
%ADD15C,0.300*%
%ADD16C,1.500*%
%ADD17R,1.500X1.500*%
%ADD18R,1.500X1.500*%
%ADD19C,2.000*%
%ADD20O,1.524X3.240*%
%ADD21C,1.600*%
D16*
X0127635Y0087630D02*
D03*
X0125095D02*
D03*
X0122555D02*
D03*
X0120015D02*
D03*
X0117475D02*
D03*
X0114935D02*
D03*
X0112395D02*
D03*
X0109855D02*
D03*
X0107315D02*
D03*
X0104775D02*
D03*
X0127635Y0080010D02*
D03*
X0125095D02*
D03*
X0122555D02*
D03*
X0120015D02*
D03*
X0117475D02*
D03*
X0114935D02*
D03*
X0112395D02*
D03*
X0109855D02*
D03*
X0107315D02*
D03*
X0168021Y0079883D02*
D03*
X0165481D02*
D03*
X0168021Y0082423D02*
D03*
X0165481D02*
D03*
X0168021Y0084963D02*
D03*
X0165481D02*
D03*
X0168021Y0087503D02*
D03*
X0153670Y0087630D02*
D03*
X0151130D02*
D03*
X0148590D02*
D03*
X0146050D02*
D03*
X0143510D02*
D03*
X0140970D02*
D03*
X0138430D02*
D03*
X0053340Y0081788D02*
D03*
D17*
X0104775Y0080010D02*
D03*
X0165481Y0087503D02*
D03*
X0053340Y0084328D02*
D03*
D18*
X0156210Y0087630D02*
D03*
D19*
X0069469Y0084582D02*
D03*
X0065405D02*
D03*
X0061341D02*
D03*
Y0082042D02*
D03*
X0065405D02*
D03*
X0069469D02*
D03*
D20*
X0072898Y0083312D02*
D03*
X0058039D02*
D03*
M02*
